<svg width="20" height="20" viewBox="0 0 20 20" fill="none" xmlns="http://www.w3.org/2000/svg">
<path d="M6.66406 3.33268V13.3327C6.66406 13.7747 6.83966 14.1986 7.15222 14.5112C7.46478 14.8238 7.8887 14.9993 8.33073 14.9993H14.9974C15.4394 14.9993 15.8633 14.8238 16.1759 14.5112C16.4885 14.1986 16.6641 13.7747 16.6641 13.3327V6.03435C16.664 5.81232 16.6196 5.59253 16.5335 5.38789C16.4473 5.18325 16.3212 4.99788 16.1624 4.84268L13.3999 2.14102C13.0885 1.83656 12.6704 1.66607 12.2349 1.66602H8.33073C7.8887 1.66602 7.46478 1.84161 7.15222 2.15417C6.83966 2.46673 6.66406 2.89065 6.66406 3.33268Z" stroke="#030922" stroke-width="1.5" stroke-linecap="round" stroke-linejoin="round"/>
<path d="M13.332 14.9987V16.6654C13.332 17.1074 13.1564 17.5313 12.8439 17.8439C12.5313 18.1564 12.1074 18.332 11.6654 18.332H4.9987C4.55667 18.332 4.13275 18.1564 3.82019 17.8439C3.50763 17.5313 3.33203 17.1074 3.33203 16.6654V7.4987C3.33203 7.05667 3.50763 6.63275 3.82019 6.32019C4.13275 6.00763 4.55667 5.83203 4.9987 5.83203H6.66536" stroke="#030922" stroke-width="1.5" stroke-linecap="round" stroke-linejoin="round"/>
</svg>
