<svg width="14" height="14" viewBox="0 0 14 14" fill="none" xmlns="http://www.w3.org/2000/svg">
<g clip-path="url(#clip0_4191_11970)">
<path d="M12.8333 6.46407V7.00073C12.8326 8.25865 12.4253 9.48263 11.6721 10.4901C10.9189 11.4976 9.86021 12.2347 8.65392 12.5913C7.44763 12.948 6.15836 12.9052 4.9784 12.4692C3.79844 12.0333 2.79101 11.2276 2.10635 10.1724C1.4217 9.11709 1.0965 7.86877 1.17927 6.61358C1.26204 5.3584 1.74833 4.16359 2.56562 3.20736C3.38291 2.25113 4.48742 1.58471 5.7144 1.30749C6.94139 1.03027 8.22511 1.1571 9.37413 1.66907" stroke="#2A2A2A" stroke-linecap="round" stroke-linejoin="round"/>
<path d="M12.8333 2.33398L7 8.17315L5.25 6.42315" stroke="#2A2A2A" stroke-linecap="round" stroke-linejoin="round"/>
</g>
<defs>
<clipPath id="clip0_4191_11970">
<rect width="14" height="14" fill="white"/>
</clipPath>
</defs>
</svg>
