<svg width="18" height="18" viewBox="0 0 18 18" fill="none" xmlns="http://www.w3.org/2000/svg">
<path d="M8.24982 3H2.99982C2.60199 3 2.22046 3.15804 1.93916 3.43934C1.65785 3.72064 1.49982 4.10218 1.49982 4.5V15C1.49982 15.3978 1.65785 15.7794 1.93916 16.0607C2.22046 16.342 2.60199 16.5 2.99982 16.5H13.4998C13.8976 16.5 14.2792 16.342 14.5605 16.0607C14.8418 15.7794 14.9998 15.3978 14.9998 15V9.75" stroke="#2A2A2A" stroke-linecap="round" stroke-linejoin="round"/>
<path d="M13.8748 1.87615C14.1732 1.57778 14.5779 1.41016 14.9998 1.41016C15.4218 1.41016 15.8264 1.57778 16.1248 1.87615C16.4232 2.17451 16.5908 2.57919 16.5908 3.00115C16.5908 3.4231 16.4232 3.82778 16.1248 4.12615L8.99982 11.2511L5.99982 12.0011L6.74982 9.00115L13.8748 1.87615Z" stroke="#2A2A2A" stroke-linecap="round" stroke-linejoin="round"/>
</svg>
