<svg width="24" height="24" viewBox="0 0 24 24" fill="none" xmlns="http://www.w3.org/2000/svg">
<path d="M8.4636 12.2089C8.4636 11.7529 8.1468 11.4805 7.5882 11.4805C7.3602 11.4805 7.206 11.5027 7.125 11.5243V12.9889C7.221 13.0105 7.3386 13.0183 7.5 13.0183C8.0958 13.0183 8.4636 12.7165 8.4636 12.2089ZM11.9232 11.4949C11.673 11.4949 11.511 11.5171 11.415 11.5393V14.7841C11.511 14.8063 11.6652 14.8063 11.805 14.8063C12.8202 14.8135 13.4826 14.2543 13.4826 13.0699C13.4904 12.0397 12.8868 11.4949 11.9232 11.4949Z" fill="#2A2A2A"/>
<path d="M18.5508 9.58945H18.144V7.62685L18.1404 7.58965C18.1408 7.51076 18.1129 7.43435 18.0618 7.37425L14.796 3.64465L14.7936 3.64225C14.7521 3.59734 14.6992 3.56439 14.6406 3.54685L14.6226 3.54085C14.5977 3.5344 14.5721 3.53117 14.5464 3.53125H6.5202C6.1536 3.53125 5.856 3.82945 5.856 4.19545V9.58945H5.4492C4.9248 9.58945 4.5 10.0143 4.5 10.5387V15.4755C4.5 15.9993 4.9254 16.4247 5.4492 16.4247H5.856V19.8045C5.856 20.1705 6.1536 20.4687 6.5202 20.4687H17.4798C17.8458 20.4687 18.144 20.1705 18.144 19.8045V16.4247H18.5508C19.0752 16.4247 19.5 15.9993 19.5 15.4755V10.5387C19.5 10.0143 19.0746 9.58945 18.5508 9.58945ZM6.5202 4.19545H14.214V7.59385C14.214 7.77745 14.3628 7.92565 14.5464 7.92565H17.4804V9.58945H6.5202V4.19545ZM14.6742 13.0335C14.6742 13.9827 14.3286 14.6379 13.8492 15.0423C13.3272 15.4761 12.5328 15.6825 11.5614 15.6825C10.98 15.6825 10.5684 15.6453 10.2882 15.6093V10.7379C10.7004 10.6719 11.2374 10.6353 11.8044 10.6353C12.7458 10.6353 13.3566 10.8045 13.8348 11.1651C14.3502 11.5473 14.6742 12.1581 14.6742 13.0335ZM6.0126 15.6315V10.7379C6.3582 10.6791 6.8442 10.6353 7.5282 10.6353C8.22 10.6353 8.7132 10.7679 9.0438 11.0325C9.36 11.2827 9.573 11.6949 9.573 12.1803C9.573 12.6663 9.4116 13.0779 9.117 13.3575C8.7342 13.7181 8.1678 13.8801 7.5054 13.8801C7.3584 13.8801 7.2258 13.8729 7.1232 13.8579V15.6315H6.0126ZM17.4798 19.6245H6.5202V16.4247H17.4798V19.6245ZM18.4422 11.5917H16.536V12.7251H18.3168V13.6377H16.536V15.6315H15.411V10.6719H18.4422V11.5917Z" fill="#2A2A2A"/>
</svg>
