<svg width="24" height="24" viewBox="0 0 24 24" fill="none" xmlns="http://www.w3.org/2000/svg">
<path d="M18.5508 9.59005H18.144V7.62745L18.1404 7.59025C18.141 7.5114 18.1129 7.43503 18.0612 7.37545L14.796 3.64525L14.7936 3.64285C14.7739 3.62188 14.7517 3.60335 14.7276 3.58765L14.706 3.57445C14.6852 3.56312 14.6633 3.55387 14.6406 3.54685L14.6226 3.54085C14.5977 3.5344 14.5721 3.53117 14.5464 3.53125H6.5202C6.1536 3.53125 5.856 3.82945 5.856 4.19545V9.58945H5.4492C4.9248 9.58945 4.5 10.0143 4.5 10.5387V15.4755C4.5 15.9993 4.9254 16.4247 5.4492 16.4247H5.856V19.8039C5.856 20.1698 6.1536 20.4681 6.5202 20.4681H17.4798C17.8458 20.4681 18.144 20.1698 18.144 19.8039V16.4247H18.5508C19.0746 16.4247 19.5 15.9999 19.5 15.4755V10.5387C19.5 10.0149 19.0752 9.59005 18.5508 9.59005ZM6.5202 4.19545H14.214V7.59385C14.214 7.77745 14.3628 7.92565 14.5464 7.92565H17.4804V9.58945H6.5202V4.19545ZM11.4894 13.2963C10.683 13.0083 10.1508 12.5619 10.1508 11.8569C10.1508 11.0295 10.8492 10.4037 11.9862 10.4037C12.5406 10.4037 12.936 10.5117 13.224 10.6479L12.9792 11.5257C12.6654 11.373 12.3208 11.2943 11.9718 11.2959C11.4966 11.2959 11.2662 11.5185 11.2662 11.7633C11.2662 12.0729 11.532 12.2091 12.1656 12.4467C13.0224 12.7634 13.4178 13.2093 13.4178 13.8933C13.4178 14.7069 12.7992 15.3975 11.4678 15.3975C10.9134 15.3975 10.3668 15.2463 10.0932 15.0951L10.3164 14.1957C10.6931 14.3883 11.109 14.4917 11.532 14.4981C12.036 14.4981 12.3024 14.2887 12.3024 13.9725C12.3024 13.6701 12.0726 13.4979 11.4894 13.2963ZM5.7738 12.9651C5.7738 11.3169 6.954 10.4031 8.4216 10.4031C8.9904 10.4031 9.4218 10.5177 9.6162 10.6119L9.3858 11.4825C9.09435 11.3601 8.78088 11.2988 8.4648 11.3025C7.6014 11.3025 6.9252 11.8275 6.9252 12.9068C6.9252 13.871 7.5006 14.4831 8.472 14.4831C8.8104 14.4831 9.1704 14.4189 9.393 14.3247L9.552 15.1881C9.3576 15.281 8.8968 15.3968 8.3142 15.3968C6.6372 15.3974 5.7738 14.3469 5.7738 12.9651ZM17.4798 19.625H6.5202V16.4253H17.4798V19.625ZM16.593 15.3254H15.312L13.758 10.4751H14.9598L15.5496 12.5265C15.7146 13.1091 15.8658 13.6563 15.981 14.2605H16.0026C16.1254 13.6839 16.2717 13.1126 16.4412 12.5481L17.0604 10.4757H18.2256L16.593 15.3254Z" fill="#2A2A2A"/>
</svg>
