<svg width="20" height="20" viewBox="0 0 20 20" fill="none" xmlns="http://www.w3.org/2000/svg">
<path d="M8.3335 10.832C8.69137 11.3104 9.14796 11.7063 9.67229 11.9928C10.1966 12.2792 10.7764 12.4496 11.3724 12.4923C11.9683 12.535 12.5665 12.449 13.1263 12.2402C13.6861 12.0313 14.1944 11.7046 14.6168 11.282L17.1168 8.782C17.8758 7.99616 18.2958 6.94365 18.2863 5.85116C18.2768 4.75868 17.8386 3.71363 17.0661 2.94109C16.2935 2.16856 15.2485 1.73035 14.156 1.72086C13.0635 1.71137 12.011 2.13134 11.2252 2.89034L9.79183 4.31534" stroke="#2A2A2A" stroke-linecap="round" stroke-linejoin="round"/>
<path d="M11.6668 9.16506C11.309 8.68662 10.8524 8.29074 10.328 8.00428C9.80371 7.71782 9.22391 7.54747 8.62796 7.50479C8.03201 7.4621 7.43384 7.54809 6.87405 7.75691C6.31425 7.96573 5.8059 8.29251 5.3835 8.71506L2.8835 11.2151C2.12451 12.0009 1.70453 13.0534 1.71402 14.1459C1.72352 15.2384 2.16172 16.2834 2.93426 17.056C3.70679 17.8285 4.75184 18.2667 5.84433 18.2762C6.93681 18.2857 7.98932 17.8657 8.77517 17.1067L10.2002 15.6817" stroke="#2A2A2A" stroke-linecap="round" stroke-linejoin="round"/>
</svg>
