<svg width="128" height="11" viewBox="0 0 128 11" fill="none" xmlns="http://www.w3.org/2000/svg">
<path d="M4.09609 11C2.48312 11 1.10361 10.6243 0 9.87286V7.59773C0.466912 7.97344 1.06116 8.3074 1.8252 8.59962C2.56801 8.87097 3.31082 9.01708 4.01119 9.01708C4.58422 9.01708 5.07236 8.91271 5.4756 8.70399C5.87884 8.49526 6.09107 8.18216 6.09107 7.78557C6.09107 7.66034 6.06985 7.5351 6.04863 7.43073C6.02741 7.32637 5.96373 7.24288 5.85762 7.15939C5.7515 7.0759 5.6666 6.99241 5.60293 6.92979C5.53927 6.86717 5.41193 6.80455 5.22092 6.74193C5.02991 6.67931 4.90257 6.61669 4.79645 6.59582C4.69034 6.57495 4.52055 6.51233 4.26587 6.42884C4.01119 6.34535 3.82019 6.3036 3.71407 6.26186C3.33205 6.13662 3.07736 6.05313 2.90758 6.01138C2.75901 5.96964 2.52557 5.86527 2.18599 5.7609C1.86764 5.63567 1.63419 5.53131 1.48563 5.42694C1.33707 5.32258 1.16728 5.19734 0.955047 5.03035C0.742814 4.86337 0.573026 4.69639 0.488133 4.50853C0.382016 4.32068 0.297121 4.11195 0.233451 3.86148C0.148558 3.611 0.127334 3.33966 0.127334 3.02656C0.127334 2.08729 0.488125 1.35674 1.20972 0.814047C1.93131 0.271352 2.9288 0 4.18097 0C5.43315 0 6.60043 0.292223 7.70404 0.876663V3.0057C6.62166 2.33777 5.45438 2.00379 4.2022 2.00379C2.97125 2.00379 2.377 2.35863 2.377 3.04743C2.377 3.1518 2.39823 3.25617 2.44068 3.33966C2.48312 3.42315 2.54679 3.50664 2.65291 3.59013C2.75902 3.67363 2.84391 3.73624 2.95003 3.77798C3.05614 3.81973 3.18348 3.88236 3.37449 3.94498C3.54428 4.00759 3.71407 4.04933 3.84141 4.09108C3.96875 4.13282 4.15976 4.17458 4.41444 4.25807C4.66912 4.32069 4.86012 4.3833 5.00869 4.42505C5.41193 4.55029 5.7515 4.67552 6.0274 4.80076C6.3033 4.92599 6.62165 5.07211 6.94 5.25996C7.25835 5.44782 7.53425 5.65654 7.72526 5.86527C7.91627 6.074 8.08606 6.34535 8.23463 6.67932C8.36197 6.99241 8.42563 7.34724 8.42563 7.74383C8.42563 8.74572 8.0224 9.55976 7.21591 10.1442C6.34576 10.7078 5.32704 11 4.09609 11Z" fill="#202934"/>
<path d="M17.091 9.85199C16.2845 10.6243 15.2658 11 14.0348 11C12.7826 11 11.7639 10.6243 10.9787 9.85199C10.1722 9.0797 9.76894 8.14041 9.76894 7.01328C9.76894 5.88614 10.1722 4.94686 10.9787 4.19544C11.7851 3.42314 12.8039 3.04743 14.0348 3.04743C15.2658 3.04743 16.3057 3.42314 17.091 4.19544C17.8974 4.96774 18.3007 5.90701 18.3007 7.01328C18.2795 8.14041 17.8762 9.0797 17.091 9.85199ZM12.5067 8.51612C12.91 8.91271 13.4193 9.12144 14.0348 9.12144C14.6503 9.12144 15.1597 8.91271 15.5629 8.51612C15.9661 8.11954 16.1571 7.59772 16.1571 6.99241C16.1571 6.38709 15.9661 5.88614 15.5629 5.48956C15.1597 5.09298 14.6503 4.88425 14.0348 4.88425C13.4193 4.88425 12.91 5.09298 12.5067 5.48956C12.1035 5.88614 11.9125 6.38709 11.9125 6.99241C11.8913 7.61859 12.1035 8.11954 12.5067 8.51612Z" fill="#202934"/>
<path d="M25.0135 3.25617H27.1783V10.8122H25.0135V9.89374C24.3344 10.6243 23.4854 11 22.4455 11C21.5541 11 20.8537 10.7287 20.3656 10.1651C19.8775 9.60152 19.644 8.85009 19.644 7.86907V3.23531H21.8088V7.43075C21.8088 8.01519 21.9573 8.43265 22.2332 8.66225C22.5304 8.91272 22.8699 9.01708 23.2732 9.01708C23.6128 9.01708 23.9523 8.93359 24.2707 8.74573C24.589 8.55788 24.8225 8.32828 25.0135 8.03606V3.25617Z" fill="#202934"/>
<path d="M30.6863 10.9791H28.5216V3.42315H30.6863V4.34156C31.3867 3.61101 32.2569 3.23529 33.2544 3.23529C34.1457 3.23529 34.8461 3.50664 35.3342 4.07021C35.8224 4.63377 36.0558 5.3852 36.0558 6.36622V11H33.8911V6.80456C33.8911 6.22012 33.7425 5.80266 33.4666 5.57306C33.1695 5.32258 32.8299 5.21821 32.4266 5.21821C32.0871 5.21821 31.7475 5.30172 31.4292 5.48957C31.1108 5.67743 30.8774 5.90702 30.6863 6.19924V10.9791Z" fill="#202934"/>
<path d="M41.0071 11C39.9672 11 39.097 10.6243 38.4179 9.85199C37.7387 9.0797 37.3991 8.14042 37.3991 7.01329C37.3991 5.88615 37.7387 4.94688 38.4179 4.19545C39.097 3.42316 39.9672 3.04745 41.0071 3.04745C42.0895 3.04745 42.9384 3.42316 43.5327 4.17458V0.208735H45.6974V10.8122H43.5327V9.89374C42.9596 10.6452 42.1319 11 41.0071 11ZM41.6226 9.14232C42.047 9.14232 42.4291 9.03795 42.7686 8.80835C43.1082 8.59962 43.3629 8.32828 43.5327 7.99432V6.03226C43.3629 5.71917 43.1082 5.44782 42.7686 5.2391C42.4291 5.03037 42.047 4.926 41.6226 4.926C41.0071 4.926 40.519 5.13474 40.1369 5.53132C39.7549 5.92791 39.5427 6.42884 39.5427 7.03416C39.5427 7.63947 39.7337 8.14043 40.1369 8.55789C40.519 8.95447 41.0283 9.14232 41.6226 9.14232Z" fill="#202934"/>
<path d="M47.0407 11V0.396582H49.248V11H47.0407Z" fill="#202934"/>
<path d="M52.756 10.9791H50.5913V3.42315H52.756V4.34156C53.4564 3.61101 54.3266 3.23529 55.3241 3.23529C56.2154 3.23529 56.9158 3.50664 57.4039 4.07021C57.8921 4.63377 58.1255 5.3852 58.1255 6.36622V11H55.9608V6.80456C55.9608 6.22012 55.8122 5.80266 55.5363 5.57306C55.2392 5.32258 54.8996 5.21821 54.4964 5.21821C54.1568 5.21821 53.8172 5.30172 53.4989 5.48957C53.1805 5.67743 52.9471 5.90702 52.756 6.19924V10.9791Z" fill="#202934"/>
<path d="M68.4251 11C67.8308 11 67.3427 10.833 66.9606 10.5199C66.5786 10.2068 66.3876 9.66414 66.3876 8.91271V5.03037H63.0131V10.7913H60.8483V5.03037H59.4688V3.23531H60.8483V2.52562C60.8483 1.7742 61.0606 1.16888 61.5063 0.709681C61.952 0.250478 62.5887 0.0208795 63.4376 0.0208795C64.1804 0.0208795 64.8383 0.125244 65.3901 0.333972V2.06642C64.9444 1.89943 64.4987 1.81594 64.0743 1.81594C63.3739 1.81594 63.0131 2.14991 63.0131 2.83872V3.25617H66.3876V0.208734H68.5524V8.34916C68.5524 8.85011 68.7859 9.10057 69.2528 9.10057C69.465 9.10057 69.656 9.05883 69.8046 8.95446V10.7078C69.4226 10.9165 68.9556 11 68.4251 11Z" fill="#202934"/>
<path d="M76.5174 3.25617H78.6821V10.8122H76.5174V9.89374C75.8382 10.6243 74.9893 11 73.9494 11C73.058 11 72.3576 10.7287 71.8695 10.1651C71.3813 9.60152 71.1479 8.85009 71.1479 7.86907V3.23531H73.3127V7.43075C73.3127 8.01519 73.4612 8.43265 73.7371 8.66225C74.0343 8.91272 74.3738 9.01708 74.7771 9.01708C75.1166 9.01708 75.4562 8.93359 75.7746 8.74573C76.0929 8.55788 76.3264 8.32828 76.5174 8.03606V3.25617Z" fill="#202934"/>
<path d="M84.2913 11C83.0816 11 82.0841 10.6452 81.2564 9.91462C80.4287 9.18407 80.0254 8.22391 80.0254 7.01329C80.0254 5.88615 80.4074 4.94687 81.1503 4.19545C81.8931 3.42316 82.8481 3.04744 84.0366 3.04744C85.1615 3.04744 86.0528 3.42316 86.7108 4.19545C87.3687 4.96775 87.7083 5.90702 87.7083 7.03416V7.59773H82.1902C82.2963 8.11955 82.5934 8.49527 83.0603 8.76661C83.5273 9.03796 84.1003 9.16319 84.7794 9.16319C85.6708 9.16319 86.4985 8.93359 87.2413 8.49526V10.2068C86.5198 10.7495 85.5435 11 84.2913 11ZM82.169 6.26187H85.5435C85.5223 5.84441 85.3737 5.48957 85.0766 5.19735C84.7794 4.90513 84.3974 4.75902 83.9305 4.75902C83.4211 4.75902 83.0179 4.90513 82.7208 5.17648C82.4024 5.44783 82.2327 5.80267 82.169 6.26187Z" fill="#202934"/>
<path d="M91.2163 10.9791H89.0516V3.42315H91.2163V4.34156C91.9167 3.61101 92.7868 3.23529 93.7843 3.23529C94.6757 3.23529 95.3761 3.50664 95.8642 4.07021C96.3524 4.63377 96.5858 5.3852 96.5858 6.36622V11H94.421V6.80456C94.421 6.22012 94.2725 5.80266 93.9966 5.57306C93.6994 5.32258 93.3599 5.21821 92.9566 5.21821C92.617 5.21821 92.2775 5.30172 91.9591 5.48957C91.6408 5.67743 91.4073 5.90702 91.2163 6.19924V10.9791Z" fill="#202934"/>
<path d="M102.11 11C100.964 11 99.9878 10.6243 99.1601 9.89374C98.3324 9.16319 97.9291 8.20305 97.9291 6.99242C97.9291 5.80267 98.3324 4.84251 99.1601 4.13284C99.9878 3.40229 100.964 3.04744 102.131 3.04744C102.959 3.04744 103.723 3.21443 104.402 3.5484V5.36433C103.744 5.05123 103.086 4.90513 102.45 4.90513C101.792 4.90513 101.219 5.09299 100.752 5.48957C100.285 5.88616 100.051 6.3871 100.051 7.01329C100.051 7.63947 100.285 8.14042 100.752 8.537C101.219 8.93359 101.771 9.12144 102.45 9.12144C103.214 9.12144 103.893 8.95446 104.53 8.59962V10.4156C103.85 10.8121 103.044 11 102.11 11Z" fill="#202934"/>
<path d="M110.139 11C108.929 11 107.932 10.6452 107.104 9.91462C106.276 9.18407 105.873 8.22391 105.873 7.01329C105.873 5.88615 106.255 4.94687 106.998 4.19545C107.741 3.42316 108.696 3.04744 109.884 3.04744C111.009 3.04744 111.9 3.42316 112.558 4.19545C113.216 4.96775 113.556 5.90702 113.556 7.03416V7.59773H108.038C108.144 8.11955 108.441 8.49527 108.908 8.76661C109.375 9.03796 109.948 9.16319 110.627 9.16319C111.518 9.16319 112.346 8.93359 113.089 8.49526V10.2068C112.367 10.7495 111.391 11 110.139 11ZM108.016 6.26187H111.391C111.37 5.84441 111.221 5.48957 110.924 5.19735C110.627 4.90513 110.245 4.75902 109.778 4.75902C109.269 4.75902 108.865 4.90513 108.568 5.17648C108.25 5.44783 108.08 5.80267 108.016 6.26187Z" fill="#202934"/>
<path d="M114.899 11V3.44402H117.064V4.71726C117.297 4.32068 117.658 3.98672 118.146 3.6945C118.634 3.40228 119.165 3.25616 119.738 3.25616C119.823 3.25616 119.908 3.25617 119.993 3.27704V5.36433C119.802 5.32258 119.568 5.28083 119.313 5.28083C118.783 5.28083 118.316 5.40607 117.913 5.67742C117.509 5.94877 117.212 6.24098 117.064 6.59582V11H114.899Z" fill="#202934"/>
<path d="M124.562 11C123.182 11 122.1 10.7704 121.336 10.2903V8.39089C121.654 8.62049 122.121 8.80835 122.673 8.99621C123.246 9.16319 123.84 9.26755 124.456 9.26755C125.347 9.26755 125.772 9.05883 125.772 8.64137C125.772 8.537 125.75 8.43264 125.687 8.37002C125.623 8.28653 125.538 8.22391 125.39 8.18216C125.241 8.14042 125.114 8.09868 124.986 8.05693C124.859 8.01519 124.668 7.97344 124.435 7.91082C124.201 7.8482 123.989 7.78558 123.819 7.74384C122.949 7.53511 122.333 7.26376 121.93 6.90892C121.527 6.57496 121.336 6.05314 121.336 5.38521C121.336 4.65466 121.633 4.09109 122.227 3.67363C122.822 3.25617 123.649 3.06831 124.71 3.06831C125.878 3.06831 126.833 3.29792 127.597 3.75713V5.57306C126.705 5.05123 125.772 4.77989 124.817 4.77989C123.989 4.77989 123.586 4.98862 123.586 5.38521C123.586 5.48957 123.607 5.57306 123.67 5.65655C123.734 5.74004 123.84 5.80266 123.989 5.86528C124.137 5.9279 124.265 5.96964 124.392 5.99051C124.519 6.01139 124.689 6.07401 124.944 6.11576C125.199 6.17838 125.368 6.22012 125.496 6.24099C126.323 6.42885 126.939 6.72107 127.363 7.09678C127.788 7.4725 128 7.99431 128 8.64137C128 9.35105 127.682 9.91462 127.066 10.3529C126.429 10.7913 125.581 11 124.562 11Z" fill="#202934"/>
</svg>
