<svg width="24" height="24" viewBox="0 0 24 24" fill="none" xmlns="http://www.w3.org/2000/svg">
<path d="M21.2501 12C21.2517 13.2145 21.0136 14.4173 20.5494 15.5396C20.0852 16.6618 19.4041 17.6815 18.5451 18.54C17.6858 19.3996 16.6654 20.0814 15.5423 20.5464C14.4193 21.0114 13.2156 21.2505 12.0001 21.25C10.6919 21.2529 9.39817 20.9767 8.20515 20.44L4.33815 21.012C4.14615 21.0433 3.9494 21.0274 3.76498 20.9654C3.58057 20.9034 3.41407 20.7974 3.27995 20.6565C3.14583 20.5155 3.04814 20.344 2.99537 20.1568C2.9426 19.9695 2.93635 19.7722 2.97715 19.582L3.51415 15.659C3.00334 14.5072 2.74293 13.26 2.75015 12C2.74859 10.7855 2.98673 9.5827 3.45091 8.46044C3.91508 7.33817 4.59618 6.31855 5.45515 5.46C6.31453 4.60042 7.33491 3.91864 8.45795 3.45364C9.58098 2.98864 10.7846 2.74954 12.0001 2.75C14.4548 2.75016 16.8089 3.72491 18.5451 5.46C19.4037 6.31888 20.0845 7.33856 20.5486 8.46075C21.0128 9.58294 21.2512 10.7856 21.2501 12Z" stroke="#2A2A2A" stroke-width="1.3" stroke-linecap="round" stroke-linejoin="round"/>
<path d="M11.9998 12.6097C12.1617 12.6097 12.317 12.5454 12.4315 12.4309C12.546 12.3164 12.6103 12.1611 12.6103 11.9992C12.6103 11.8373 12.546 11.682 12.4315 11.5675C12.317 11.453 12.1617 11.3887 11.9998 11.3887C11.8379 11.3887 11.6826 11.453 11.5681 11.5675C11.4536 11.682 11.3893 11.8373 11.3893 11.9992C11.3893 12.1611 11.4536 12.3164 11.5681 12.4309C11.6826 12.5454 11.8379 12.6097 11.9998 12.6097ZM16.2788 12.6097C16.4407 12.6097 16.596 12.5454 16.7105 12.4309C16.825 12.3164 16.8893 12.1611 16.8893 11.9992C16.8893 11.8373 16.825 11.682 16.7105 11.5675C16.596 11.453 16.4407 11.3887 16.2788 11.3887C16.1169 11.3887 15.9616 11.453 15.8471 11.5675C15.7326 11.682 15.6683 11.8373 15.6683 11.9992C15.6683 12.1611 15.7326 12.3164 15.8471 12.4309C15.9616 12.5454 16.1169 12.6097 16.2788 12.6097ZM7.72083 12.6097C7.801 12.6097 7.8804 12.594 7.95449 12.5634C8.02859 12.5328 8.09593 12.4879 8.15266 12.4312C8.2094 12.3746 8.25442 12.3073 8.28517 12.2333C8.31591 12.1592 8.33176 12.0798 8.33183 11.9997C8.33189 11.9195 8.31617 11.8401 8.28555 11.766C8.25493 11.6919 8.21001 11.6246 8.15337 11.5678C8.09673 11.5111 8.02946 11.4661 7.95542 11.4353C7.88137 11.4046 7.802 11.3887 7.72183 11.3887C7.55991 11.3887 7.40463 11.453 7.29014 11.5675C7.17565 11.682 7.11133 11.8373 7.11133 11.9992C7.11133 12.1611 7.17565 12.3164 7.29014 12.4309C7.40463 12.5454 7.55891 12.6097 7.72083 12.6097Z" stroke="#2A2A2A" stroke-width="1.3" stroke-linecap="round" stroke-linejoin="round"/>
</svg>
