<svg width="24" height="24" viewBox="0 0 24 24" fill="none" xmlns="http://www.w3.org/2000/svg">
<path d="M16.5 3.65039C19.2218 3.65039 21.3496 5.76976 21.3496 8.5C21.3496 10.1713 20.6024 11.7437 19.1533 13.5166C17.6971 15.2982 15.6014 17.2023 13.0137 19.5488L13.0127 19.5498L12 20.4707L10.9873 19.5498L10.9863 19.5488L9.14062 17.8662C7.39131 16.2572 5.93885 14.8528 4.84668 13.5166C3.39758 11.7437 2.65039 10.1713 2.65039 8.5C2.65039 5.76976 4.77821 3.65039 7.5 3.65039C9.04341 3.65039 10.5358 4.3716 11.5068 5.50293L12 6.07812L12.4932 5.50293C13.4642 4.3716 14.9566 3.65039 16.5 3.65039Z" stroke="#2A2A2A" stroke-width="1.3"/>
</svg>
