<svg width="19" height="13" viewBox="0 0 19 13" fill="none" xmlns="http://www.w3.org/2000/svg">
<path d="M5.625 1.125H17.625M5.625 6.375H17.625M5.625 11.625H17.625M1.125 1.125H1.132V1.133H1.125V1.125ZM1.5 1.125C1.5 1.22446 1.46049 1.31984 1.39016 1.39016C1.31984 1.46049 1.22446 1.5 1.125 1.5C1.02554 1.5 0.930161 1.46049 0.859835 1.39016C0.789509 1.31984 0.75 1.22446 0.75 1.125C0.75 1.02554 0.789509 0.930161 0.859835 0.859835C0.930161 0.789509 1.02554 0.75 1.125 0.75C1.22446 0.75 1.31984 0.789509 1.39016 0.859835C1.46049 0.930161 1.5 1.02554 1.5 1.125ZM1.125 6.375H1.132V6.383H1.125V6.375ZM1.5 6.375C1.5 6.47446 1.46049 6.56984 1.39016 6.64017C1.31984 6.71049 1.22446 6.75 1.125 6.75C1.02554 6.75 0.930161 6.71049 0.859835 6.64017C0.789509 6.56984 0.75 6.47446 0.75 6.375C0.75 6.27554 0.789509 6.18016 0.859835 6.10983C0.930161 6.03951 1.02554 6 1.125 6C1.22446 6 1.31984 6.03951 1.39016 6.10983C1.46049 6.18016 1.5 6.27554 1.5 6.375ZM1.125 11.625H1.132V11.633H1.125V11.625ZM1.5 11.625C1.5 11.7245 1.46049 11.8198 1.39016 11.8902C1.31984 11.9605 1.22446 12 1.125 12C1.02554 12 0.930161 11.9605 0.859835 11.8902C0.789509 11.8198 0.75 11.7245 0.75 11.625C0.75 11.5255 0.789509 11.4302 0.859835 11.3598C0.930161 11.2895 1.02554 11.25 1.125 11.25C1.22446 11.25 1.31984 11.2895 1.39016 11.3598C1.46049 11.4302 1.5 11.5255 1.5 11.625Z" stroke="#202934" stroke-width="1.5" stroke-linecap="round" stroke-linejoin="round"/>
</svg>
