<svg xmlns="http://www.w3.org/2000/svg" width="14" height="15" fill="none" viewBox="0 0 14 15">
  <path fill="#FF793E" d="M1.474 13.571c-.81 0-1.474-.64-1.474-1.423V2.852c0-.783.663-1.423 1.474-1.423.81 0 1.473.64 1.473 1.423v9.296c0 .76-.663 1.423-1.473 1.423ZM5.158 15c-.81 0-1.474-.591-1.474-1.314V1.314C3.684.59 4.347 0 5.158 0c.81 0 1.474.591 1.474 1.314v12.372c0 .723-.664 1.314-1.474 1.314Zm3.684-3.929c-.81 0-1.474-.602-1.474-1.339V5.268c0-.737.664-1.34 1.474-1.34.81 0 1.474.603 1.474 1.34v4.464c0 .737-.663 1.34-1.474 1.34Zm3.684-1.785c-.81 0-1.473-.63-1.473-1.4v-.771c0-.77.663-1.4 1.473-1.4S14 6.344 14 7.114v.77c0 .77-.663 1.4-1.474 1.4Z"/>
</svg>
