<svg xmlns="http://www.w3.org/2000/svg" width="24" height="24" fill="none" viewBox="0 0 24 24">
  <rect width="24" height="24" fill="#18181C" rx="12"/>
  <path fill="#fff" d="M7.263 16.857C6.568 16.857 6 16.345 6 15.72V8.28c0-.626.568-1.138 1.263-1.138s1.263.512 1.263 1.138v7.438c0 .607-.568 1.138-1.263 1.138ZM10.421 18c-.695 0-1.263-.473-1.263-1.051V7.05c0-.577.568-1.05 1.262-1.05s1.263.473 1.263 1.051v9.898c0 .578-.568 1.051-1.263 1.051Zm3.158-3.143c-.695 0-1.263-.482-1.263-1.071v-3.572c0-.589.568-1.071 1.263-1.071s1.263.482 1.263 1.071v3.572c0 .589-.568 1.071-1.263 1.071Zm3.158-1.428c-.695 0-1.263-.505-1.263-1.12v-.617c0-.616.568-1.12 1.263-1.12S18 11.075 18 11.691v.616c0 .616-.568 1.12-1.263 1.12Z"/>
</svg>
