<svg width="14" height="14" viewBox="0 0 14 14" fill="none" xmlns="http://www.w3.org/2000/svg">
<g clip-path="url(#clip0_667_6273)">
<path d="M12.8328 9.87136V11.6214C12.8335 11.7838 12.8002 11.9446 12.7351 12.0935C12.6701 12.2423 12.5746 12.376 12.4549 12.4858C12.3352 12.5956 12.1938 12.6792 12.04 12.7313C11.8861 12.7833 11.723 12.8026 11.5612 12.788C9.76617 12.593 8.04193 11.9796 6.52701 10.9972C5.11758 10.1016 3.92263 8.90663 3.02701 7.49719C2.04117 5.97539 1.42766 4.24277 1.23618 2.43969C1.2216 2.27838 1.24077 2.1158 1.29247 1.96231C1.34417 1.80881 1.42726 1.66776 1.53646 1.54814C1.64566 1.42851 1.77857 1.33294 1.92672 1.2675C2.07488 1.20205 2.23505 1.16818 2.39701 1.16803H4.14701C4.43011 1.16524 4.70456 1.26549 4.91921 1.45009C5.13386 1.63468 5.27406 1.89104 5.31368 2.17136C5.38754 2.7314 5.52453 3.28128 5.72201 3.81053C5.8005 4.01931 5.81748 4.24623 5.77096 4.46437C5.72443 4.68252 5.61635 4.88276 5.45951 5.04136L4.71868 5.78219C5.54909 7.24259 6.75828 8.45178 8.21868 9.28219L8.95951 8.54136C9.11812 8.38452 9.31835 8.27644 9.5365 8.22991C9.75465 8.18339 9.98156 8.20037 10.1903 8.27886C10.7196 8.47635 11.2695 8.61333 11.8295 8.68719C12.1129 8.72717 12.3717 8.8699 12.5567 9.08823C12.7417 9.30657 12.8399 9.58528 12.8328 9.87136Z" stroke="#B9D0FF" stroke-width="1.5" stroke-linecap="round" stroke-linejoin="round"/>
</g>
<defs>
<clipPath id="clip0_667_6273">
<rect width="14" height="14" fill="white"/>
</clipPath>
</defs>
</svg>
