<svg width="18" height="18" viewBox="0 0 18 18" fill="none" xmlns="http://www.w3.org/2000/svg">
<path d="M12.75 13.5V16.5H5.25V13.5L9 12.75L12.75 13.5Z" fill="black" fill-opacity="0.16"/>
<path d="M12.75 13.5V16.5H5.25V13.5L9 12.75L12.75 13.5Z" stroke="#202934"/>
<path d="M9 9L11.352 7.20675C12.2385 6.525 12.75 5.44875 12.75 4.30125V1.5H5.25V4.30125C5.25 5.44875 5.7615 6.525 6.648 7.20675L9 9ZM9 9L6.648 10.7932C5.7615 11.475 5.25 12.5512 5.25 13.6987V16.5H12.75V13.6987C12.75 12.5512 12.2385 11.475 11.352 10.7932L9 9ZM5.25 13.5L9 12.75L12.75 13.5M3.75 1.5H14.25M3.75 16.5H14.25" stroke="#202934" stroke-miterlimit="10" stroke-linecap="round" stroke-linejoin="round"/>
</svg>
