<svg width="18" height="18" viewBox="0 0 18 18" fill="none" xmlns="http://www.w3.org/2000/svg">
<path d="M0.384128 8.89222C0.383707 10.4046 0.781957 11.8813 1.53922 13.1828L0.311707 17.63L4.89833 16.4367C6.16694 17.1219 7.58831 17.481 9.03271 17.4811H9.0365C13.8047 17.4811 17.6862 13.6311 17.6882 8.89899C17.6892 6.60594 16.79 4.44971 15.1564 2.82748C13.523 1.20538 11.3507 0.311593 9.03615 0.310547C4.26735 0.310547 0.386167 4.16031 0.384199 8.89222" fill="url(#paint0_linear_4440_2561)"/>
<path d="M0.0752344 8.88949C0.0747422 10.4563 0.487266 11.9858 1.27153 13.334L0 17.9405L4.75109 16.7044C6.06016 17.4126 7.53405 17.786 9.03382 17.7866H9.03769C13.977 17.7866 17.9979 13.7981 18 8.8966C18.0008 6.52116 17.0693 4.28742 15.3773 2.60707C13.6851 0.92693 11.4351 0.000976744 9.03769 0C4.09753 0 0.0772031 3.98791 0.0752344 8.88949ZM2.90468 13.1018L2.72728 12.8223C1.98155 11.6458 1.58794 10.2862 1.5885 8.89005C1.59005 4.81598 4.93158 1.5014 9.0405 1.5014C11.0303 1.50223 12.9004 2.27191 14.3069 3.66837C15.7134 5.06498 16.4873 6.92149 16.4868 8.89605C16.485 12.9701 13.1434 16.2851 9.03769 16.2851H9.03473C7.69788 16.2844 6.38677 15.9282 5.24334 15.255L4.97123 15.0949L2.15184 15.8284L2.90468 13.1018Z" fill="url(#paint1_linear_4440_2561)"/>
<path d="M6.79766 5.1723C6.62989 4.80233 6.45334 4.79486 6.2938 4.78837C6.16316 4.78279 6.01381 4.78321 5.86461 4.78321C5.71527 4.78321 5.47262 4.83895 5.26752 5.06116C5.0622 5.28358 4.48367 5.82107 4.48367 6.91426C4.48367 8.00744 5.28615 9.064 5.39802 9.2124C5.51002 9.36051 6.94721 11.6757 9.22337 12.5663C11.1151 13.3065 11.5 13.1593 11.9106 13.1222C12.3212 13.0852 13.2355 12.5848 13.4221 12.066C13.6088 11.5472 13.6088 11.1025 13.5528 11.0095C13.4968 10.917 13.3475 10.8614 13.1235 10.7503C12.8996 10.6392 11.7986 10.1016 11.5933 10.0274C11.388 9.95333 11.2387 9.91635 11.0894 10.1388C10.94 10.361 10.5112 10.8614 10.3805 11.0095C10.2499 11.1581 10.1192 11.1766 9.89534 11.0654C9.67126 10.9539 8.95006 10.7196 8.09443 9.96268C7.42871 9.3737 6.97927 8.64637 6.84863 8.42388C6.71799 8.20175 6.83464 8.08133 6.94693 7.97061C7.04755 7.87105 7.17095 7.71114 7.28303 7.58144C7.39468 7.45168 7.43195 7.35909 7.50662 7.21091C7.58136 7.06258 7.54395 6.93282 7.48806 6.82168C7.43195 6.71054 6.99678 5.61163 6.79766 5.1723Z" fill="white"/>
<defs>
<linearGradient id="paint0_linear_4440_2561" x1="869.139" y1="1732.25" x2="869.139" y2="0.310547" gradientUnits="userSpaceOnUse">
<stop stop-color="#1FAF38"/>
<stop offset="1" stop-color="#60D669"/>
</linearGradient>
<linearGradient id="paint1_linear_4440_2561" x1="900" y1="1794.05" x2="900" y2="0" gradientUnits="userSpaceOnUse">
<stop stop-color="#F9F9F9"/>
<stop offset="1" stop-color="white"/>
</linearGradient>
</defs>
</svg>
