<svg width="16" height="16" viewBox="0 0 16 16" fill="none" xmlns="http://www.w3.org/2000/svg">
<g clip-path="url(#clip0_4440_2581)">
<path d="M8 0C5.87875 0 3.8425 0.843375 2.34375 2.34313C0.843465 3.84348 0.000429311 5.87823 0 8C0 10.1209 0.84375 12.1571 2.34375 13.6569C3.8425 15.1566 5.87875 16 8 16C10.1213 16 12.1575 15.1566 13.6562 13.6569C15.1562 12.1571 16 10.1209 16 8C16 5.87913 15.1562 3.84288 13.6562 2.34313C12.1575 0.843375 10.1213 0 8 0Z" fill="url(#paint0_linear_4440_2581)"/>
<path d="M3.62125 7.91602C5.95375 6.90002 7.50875 6.23018 8.28625 5.90652C10.5087 4.98239 10.97 4.82189 11.2712 4.81645C11.3375 4.81539 11.485 4.83177 11.5812 4.90958C11.6612 4.9752 11.6837 5.06395 11.695 5.12627C11.705 5.18852 11.7187 5.33039 11.7075 5.44114C11.5875 6.70614 11.0662 9.77589 10.8012 11.1928C10.69 11.7923 10.4687 11.9933 10.255 12.0129C9.79 12.0556 9.4375 11.7059 8.9875 11.411C8.28375 10.9494 7.88625 10.6621 7.2025 10.2118C6.4125 9.69127 6.925 9.40514 7.375 8.93764C7.4925 8.81527 9.54 6.95339 9.57875 6.78452C9.58375 6.76339 9.58875 6.68464 9.54125 6.64314C9.495 6.60152 9.42625 6.61577 9.37625 6.62702C9.305 6.64302 8.18125 7.38652 6.00125 8.85739C5.6825 9.07664 5.39375 9.18352 5.13375 9.17789C4.84875 9.17177 4.29875 9.01639 3.89 8.88364C3.39 8.72077 2.99125 8.63464 3.02625 8.35802C3.04375 8.21402 3.2425 8.06664 3.62125 7.91602Z" fill="white"/>
</g>
<defs>
<linearGradient id="paint0_linear_4440_2581" x1="800" y1="0" x2="800" y2="1600" gradientUnits="userSpaceOnUse">
<stop stop-color="#2AABEE"/>
<stop offset="1" stop-color="#229ED9"/>
</linearGradient>
<clipPath id="clip0_4440_2581">
<rect width="16" height="16" fill="white"/>
</clipPath>
</defs>
</svg>
