<svg width="21" height="14" viewBox="0 0 21 14" fill="none" xmlns="http://www.w3.org/2000/svg">
<path d="M20.5624 2.18591C20.3218 1.32682 19.6102 0.649091 18.7049 0.416818C17.0679 1.51721e-07 10.5 0 10.5 0C10.5 0 3.93541 1.51721e-07 2.2951 0.416818C1.3931 0.645909 0.681515 1.32364 0.437639 2.18591C0 3.745 0 7 0 7C0 7 0 10.255 0.437639 11.8141C0.678174 12.6732 1.38976 13.3509 2.2951 13.5832C3.93541 14 10.5 14 10.5 14C10.5 14 17.0679 14 18.7049 13.5832C19.6069 13.3541 20.3185 12.6764 20.5624 11.8141C21 10.255 21 7 21 7C21 7 21 3.745 20.5624 2.18591Z" fill="#18181C"/>
<path d="M8.40201 10.0005L13.8575 7L8.40201 3.99955V10.0005Z" fill="white"/>
</svg>
