<svg width="25" height="11" viewBox="0 0 25 11" fill="none" xmlns="http://www.w3.org/2000/svg">
<path d="M0.282872 6.57994C0.230903 6.57994 0.189459 6.62059 0.18288 6.67924L0 8.08615L0.18288 9.4684C0.183538 9.52638 0.230903 9.56704 0.282872 9.56704C0.333526 9.56704 0.374312 9.52705 0.382864 9.4684L0.599295 8.08548L0.382864 6.67858C0.37497 6.62059 0.333526 6.57994 0.282872 6.57994ZM1.31108 5.81151C1.30253 5.75086 1.25977 5.70954 1.20714 5.70954C1.15451 5.70954 1.11044 5.75286 1.1032 5.81151C1.1032 5.81157 0.857169 8.08615 0.857169 8.08615L1.1032 10.3101C1.11044 10.3701 1.15386 10.4128 1.20714 10.4128C1.25977 10.4128 1.30253 10.3708 1.31108 10.3108L1.59066 8.08615L1.31108 5.81151ZM5.18314 3.71348C5.08249 3.71348 4.99895 3.79678 4.99434 3.90342L4.79831 8.08815L4.99434 10.7927C4.99961 10.8986 5.08249 10.9819 5.18314 10.9819C5.28314 10.9819 5.36668 10.8986 5.3726 10.7927V10.7927L5.59364 8.08822L5.3726 3.90348C5.36668 3.79752 5.28379 3.71354 5.18314 3.71354V3.71348ZM3.1787 5.16777C3.10107 5.16777 3.03792 5.23042 3.032 5.31372L2.81162 8.08622L3.032 10.7654C3.03792 10.8487 3.10107 10.9114 3.1787 10.9114C3.25501 10.9114 3.31882 10.8487 3.3254 10.7654L3.57603 8.08622L3.3254 5.31306C3.32474 5.22975 3.25566 5.1671 3.1787 5.1671V5.16777ZM7.21983 10.98C7.34482 10.98 7.44678 10.878 7.45139 10.7474L7.64348 8.08888L7.45204 2.5179C7.44678 2.38728 7.34547 2.28531 7.22048 2.28531C7.09418 2.28531 6.99221 2.38794 6.98826 2.51857L6.81788 8.08888L6.98826 10.7487C6.99221 10.8787 7.09418 10.9807 7.21983 10.9807V10.98ZM11.3892 10.9927C11.5616 10.9927 11.703 10.8494 11.7063 10.6728V10.6748V10.6728L11.8405 8.09022L11.7063 1.65616C11.703 1.48022 11.5609 1.33626 11.3892 1.33626C11.2169 1.33626 11.0748 1.47955 11.0722 1.65683L10.9524 8.08888C10.9524 8.09288 11.0722 10.6754 11.0722 10.6754C11.0748 10.85 11.2175 10.994 11.3892 10.994V10.9927ZM9.28874 10.984C9.43873 10.984 9.55911 10.862 9.56306 10.7068V10.7088L9.72621 8.09022L9.56306 2.47858C9.55911 2.3233 9.43807 2.202 9.28874 2.202C9.13809 2.202 9.01705 2.3233 9.01376 2.47858L8.86904 8.09022L9.01442 10.7081C9.01771 10.8614 9.13809 10.9833 9.2894 10.9833L9.28874 10.984ZM4.17796 10.9587C4.26677 10.9587 4.33913 10.8867 4.34571 10.7914L4.58188 8.08688L4.34571 5.51366C4.34505 5.41836 4.26743 5.34705 4.17796 5.34705C4.08784 5.34705 4.01547 5.41902 4.01021 5.515L3.80233 8.08688L4.01021 10.7914C4.01613 10.8867 4.08784 10.9587 4.17796 10.9587ZM2.19127 10.8107C2.2564 10.8107 2.30903 10.7587 2.31626 10.6868L2.58138 8.08622L2.31626 5.3877C2.30837 5.31572 2.25574 5.26374 2.19062 5.26374C2.12483 5.26374 2.07221 5.31572 2.06563 5.3877L1.83209 8.08622L2.06563 10.6861C2.06628 10.7581 2.12483 10.8107 2.19062 10.8107H2.19127ZM10.3367 2.38461C10.1742 2.38461 10.0439 2.5159 10.0407 2.68319L9.90843 8.08955L10.0407 10.6914C10.0439 10.8567 10.1742 10.988 10.3367 10.988C10.4992 10.988 10.6288 10.8574 10.6327 10.6894V10.6914L10.7814 8.08955L10.6327 2.68185C10.6288 2.51457 10.4992 2.38394 10.3367 2.38394V2.38461ZM6.19951 10.9853C6.312 10.9853 6.40476 10.8927 6.41002 10.7741L6.61658 8.08822L6.41002 2.94644C6.4041 2.82781 6.312 2.73517 6.19951 2.73517C6.08636 2.73517 5.99361 2.82781 5.989 2.94644L5.80612 8.08822L5.989 10.7741C5.99361 10.8914 6.08636 10.984 6.19951 10.984V10.9853ZM8.50525 10.7307V10.7294L8.68287 8.08755L8.50525 2.32863C8.5013 2.18534 8.38947 2.07337 8.25198 2.07337C8.11383 2.07337 8.00266 2.18534 7.99871 2.32863L7.84149 8.08688L7.99937 10.7301C8.00332 10.872 8.11449 10.9833 8.25264 10.9833C8.39013 10.9833 8.5013 10.8714 8.50591 10.7288L8.50525 10.7307ZM21.9252 4.76789C21.5042 4.76789 21.1023 4.85453 20.7359 5.00982C20.4911 2.202 18.1676 0 15.333 0C14.6396 0 13.9634 0.138624 13.3661 0.372553C13.1338 0.463192 13.072 0.557165 13.07 0.73911V10.6261C13.0727 10.8167 13.2187 10.9753 13.4022 10.9947C13.4101 10.9947 21.8706 11 21.9252 11C23.6231 11 25 9.60509 25 7.88495C25 6.16413 23.6238 4.76922 21.9252 4.76922V4.76789ZM12.4411 0.730445C12.2563 0.730445 12.105 0.883732 12.1023 1.07301L11.9635 8.09022L12.1023 10.6368C12.105 10.8227 12.2563 10.976 12.4411 10.976C12.6253 10.976 12.7766 10.8227 12.7799 10.6341V10.6374L12.9306 8.09022L12.7799 1.07234C12.7773 0.884399 12.6253 0.730445 12.4411 0.730445Z" fill="#18181C"/>
</svg>
