<?xml version="1.0" standalone="no"?>
<!DOCTYPE svg PUBLIC "-//W3C//DTD SVG 20010904//EN"
 "http://www.w3.org/TR/2001/REC-SVG-20010904/DTD/svg10.dtd">
<svg version="1.0" xmlns="http://www.w3.org/2000/svg"
 width="500.000000pt" height="500.000000pt" viewBox="0 0 500.000000 500.000000"
 preserveAspectRatio="xMidYMid meet">

<g transform="translate(0.000000,500.000000) scale(0.100000,-0.100000)"
fill="#000000" stroke="none">
<path d="M3122 3947 c-34 -36 -36 -17 53 -587 38 -248 127 -840 195 -1300 67
-459 65 -452 110 -470 34 -14 63 -6 90 23 23 24 25 65 10 148 -10 56 -84 554
-96 646 -6 50 -5 53 19 62 57 22 89 102 89 221 -1 161 -58 273 -155 302 -21 6
-41 17 -43 22 -3 11 -29 183 -95 641 -33 236 -41 269 -65 296 -25 28 -85 25
-112 -4z"/>
<path d="M2840 3638 c-320 -208 -831 -538 -932 -602 -59 -37 -112 -73 -118
-81 -8 -9 -7 -41 4 -116 29 -198 66 -475 81 -609 9 -74 19 -138 24 -143 5 -5
82 -26 172 -48 90 -22 400 -99 688 -170 288 -71 526 -127 529 -124 3 3 -25
200 -62 438 -37 237 -79 502 -92 587 -13 85 -33 211 -44 280 -11 69 -35 233
-55 365 -19 132 -38 257 -42 278 l-8 39 -145 -94z"/>
<path d="M4002 3572 c-293 -303 -427 -447 -427 -456 0 -6 18 -28 41 -49 l41
-37 38 43 c21 23 59 65 84 92 43 47 123 136 269 299 66 72 73 93 44 119 -27
25 -60 21 -90 -11z"/>
<path d="M1275 2914 c-170 -29 -329 -60 -352 -69 -65 -25 -137 -87 -171 -147
-48 -86 -55 -141 -37 -303 33 -283 55 -356 124 -417 92 -81 187 -95 387 -58
60 11 202 36 317 55 114 19 211 36 215 39 5 3 -16 168 -45 368 -95 653 -83
588 -107 587 -11 -1 -160 -25 -331 -55z"/>
<path d="M4045 2914 c-11 -3 -60 -11 -110 -20 -49 -9 -114 -20 -143 -26 l-54
-10 7 -46 c4 -26 8 -49 10 -50 2 -2 88 6 192 19 153 18 192 26 211 43 26 23
28 43 6 74 -12 17 -24 22 -57 21 -23 -1 -51 -3 -62 -5z"/>
<path d="M3733 2523 c-3 -10 -12 -33 -20 -52 -7 -19 -10 -38 -6 -41 5 -4 62
-40 128 -80 405 -247 397 -243 432 -229 32 12 41 56 17 79 -18 18 -530 340
-540 340 -2 0 -7 -8 -11 -17z"/>
<path d="M1625 1859 c-55 -11 -160 -31 -234 -44 -74 -13 -136 -27 -139 -30 -3
-3 -1 -34 5 -68 12 -66 77 -417 94 -504 15 -75 44 -113 114 -148 47 -24 76
-31 137 -34 143 -6 240 50 272 158 22 74 21 82 -18 239 -42 167 -73 318 -82
395 -7 67 1 65 -149 36z"/>
</g>
</svg>
