<svg width="20" height="20" viewBox="0 0 20 20" fill="none" xmlns="http://www.w3.org/2000/svg">
<g clip-path="url(#clip0_3585_4850)">
<g filter="url(#filter0_i_3585_4850)">
<path d="M16.5456 19.4757C17.8899 18.9563 18.9526 17.8935 19.472 16.5493C19.7179 15.9125 19.89 15.1859 19.9367 14.1232C19.9478 13.8742 19.9564 13.6653 19.9644 13.4557V6.35503C19.9588 6.2069 19.9527 6.05262 19.9447 5.87928C19.898 4.81652 19.7259 4.0863 19.48 3.45319C19.2261 2.78136 18.8352 2.17961 18.3238 1.67988C17.8235 1.17155 17.218 0.776939 16.5536 0.527384C15.9168 0.281518 15.1902 0.109412 14.1275 0.0626971C13.0567 0.0116799 12.7168 0 10.0018 0C7.28686 0 6.94634 0.0116794 5.87989 0.058394C4.81714 0.105109 4.08691 0.277215 3.45381 0.523081C2.78198 0.776938 2.18022 1.16787 1.67988 1.67988C1.17217 2.18022 0.777552 2.78567 0.527383 3.44951C0.281516 4.0863 0.10941 4.81284 0.0626953 5.87559C0.011678 6.94634 0 7.28625 0 10.0018C0 12.7174 0.0116775 13.0574 0.0583921 14.1238C0.105107 15.1866 0.277214 15.9174 0.523695 16.5499C0.777552 17.2217 1.17217 17.8235 1.67988 18.3238C2.18022 18.8315 2.78566 19.2267 3.45012 19.4763C4.08691 19.7222 4.81345 19.8943 5.87621 19.941C6.94265 19.9883 7.28256 20 9.99816 20C12.7137 20 13.053 19.9883 14.1201 19.941C15.1829 19.8943 15.9131 19.7222 16.5462 19.4763L16.5456 19.4757ZM10.0055 18.2021C7.33665 18.2021 7.01641 18.1904 5.96533 18.1437C4.98863 18.1007 4.46125 17.9366 4.10966 17.8001C3.67632 17.6397 3.2817 17.3858 2.96084 17.0539C2.62893 16.7294 2.37445 16.3391 2.21464 15.9051C2.07819 15.5535 1.91407 15.0218 1.87104 14.0494C1.82433 12.9947 1.81265 12.6781 1.81265 10.0092C1.81265 7.34034 1.82433 7.0201 1.87104 5.96964C1.91407 4.99293 2.07819 4.46555 2.21464 4.11396C2.37507 3.68001 2.62893 3.28539 2.96515 2.96515C3.28908 2.63323 3.68 2.37937 4.11334 2.21894C4.46493 2.08249 4.99662 1.91837 5.96902 1.87535C7.02379 1.82863 7.34034 1.81695 10.0086 1.81695C12.6769 1.81695 12.9977 1.82863 14.0488 1.87535C15.0255 1.91837 15.5529 2.08249 15.9045 2.21894C16.3378 2.37937 16.7324 2.63323 17.0527 2.96515C17.3846 3.28969 17.6391 3.68001 17.7989 4.11396C17.9353 4.46555 18.0995 4.99662 18.1425 5.96964C18.1892 7.0244 18.2009 7.34096 18.2009 10.0092C18.2009 12.6775 18.1892 12.9903 18.1425 14.0451C18.0995 15.0218 17.9353 15.5492 17.7989 15.9008C17.4627 16.7724 16.7712 17.4639 15.9002 17.7995C15.5486 17.936 15.0175 18.1001 14.0445 18.1431C12.9897 18.1898 12.6732 18.2015 10.0049 18.2015L10.0055 18.2021Z" fill="#18181C"/>
<path d="M10.0018 4.86328C7.16514 4.86328 4.86383 7.16459 4.86383 10.0013C4.86383 12.838 7.16514 15.1393 10.0018 15.1393C12.8385 15.1393 15.1392 12.838 15.1392 10.0013C15.1392 7.16459 12.8379 4.86328 10.0018 4.86328ZM10.0018 13.3334C8.16151 13.3334 6.66911 11.841 6.66911 10.0007C6.66911 8.16035 8.16151 6.66794 10.0018 6.66794C11.8421 6.66794 13.3345 8.16035 13.3345 10.0007C13.3345 11.841 11.8421 13.3334 10.0018 13.3334Z" fill="#18181C"/>
<path d="M16.5419 4.66015C16.5419 3.99754 16.0047 3.46094 15.3421 3.46094C14.6795 3.46094 14.1429 3.99815 14.1429 4.66015C14.1429 5.32214 14.6801 5.85936 15.3421 5.85936C16.0041 5.85936 16.5419 5.32276 16.5419 4.66015Z" fill="#18181C"/>
</g>
</g>
<defs>
<filter id="filter0_i_3585_4850" x="0" y="0" width="19.9644" height="20.5" filterUnits="userSpaceOnUse" color-interpolation-filters="sRGB">
<feFlood flood-opacity="0" result="BackgroundImageFix"/>
<feBlend mode="normal" in="SourceGraphic" in2="BackgroundImageFix" result="shape"/>
<feColorMatrix in="SourceAlpha" type="matrix" values="0 0 0 0 0 0 0 0 0 0 0 0 0 0 0 0 0 0 127 0" result="hardAlpha"/>
<feOffset dy="0.5"/>
<feGaussianBlur stdDeviation="1.25"/>
<feComposite in2="hardAlpha" operator="arithmetic" k2="-1" k3="1"/>
<feColorMatrix type="matrix" values="0 0 0 0 0 0 0 0 0 0 0 0 0 0 0 0 0 0 0.1 0"/>
<feBlend mode="normal" in2="shape" result="effect1_innerShadow_3585_4850"/>
</filter>
<clipPath id="clip0_3585_4850">
<rect width="20" height="20" fill="white"/>
</clipPath>
</defs>
</svg>
