<svg width="19" height="19" viewBox="0 0 19 19" fill="none" xmlns="http://www.w3.org/2000/svg">
<path fill-rule="evenodd" clip-rule="evenodd" d="M9.5 0C4.275 0 0 4.275 0 9.5C0 14.725 4.275 19 9.5 19C14.725 19 19 14.725 19 9.5C19 4.275 14.7725 0 9.5 0ZM13.87 13.7275C13.68 14.0125 13.3475 14.1075 13.0625 13.9175C10.83 12.54 8.0275 12.255 4.7025 13.015C4.37 13.11 4.085 12.8725 3.99 12.5875C3.895 12.255 4.1325 11.97 4.4175 11.875C8.0275 11.0675 11.1625 11.4 13.6325 12.92C13.965 13.0625 14.0125 13.4425 13.87 13.7275ZM15.01 11.115C14.7725 11.4475 14.345 11.59 14.0125 11.3525C11.4475 9.785 7.5525 9.31 4.56 10.26C4.18 10.355 3.7525 10.165 3.6575 9.785C3.5625 9.405 3.7525 8.9775 4.1325 8.8825C7.6 7.8375 11.875 8.36 14.82 10.165C15.105 10.3075 15.2475 10.7825 15.01 11.115ZM15.105 8.455C12.065 6.65 6.9825 6.46 4.085 7.3625C3.61 7.505 3.135 7.22 2.9925 6.7925C2.85 6.3175 3.135 5.8425 3.5625 5.7C6.935 4.7025 12.4925 4.8925 16.0075 6.9825C16.435 7.22 16.5775 7.79 16.34 8.2175C16.1025 8.55 15.5325 8.6925 15.105 8.455Z" fill="#18181C"/>
</svg>
