<svg width="15" height="17" viewBox="0 0 15 17" fill="none" xmlns="http://www.w3.org/2000/svg">
<path fill-rule="evenodd" clip-rule="evenodd" d="M11.0633 6.1032C12.1928 6.90686 13.5454 7.33624 14.9312 7.33104V4.58214C14.6588 4.5829 14.3871 4.5537 14.121 4.49509V6.68505C12.7321 6.68751 11.3775 6.2532 10.2485 5.44346V11.097C10.2451 12.0247 9.99093 12.9342 9.51293 13.729C9.03494 14.5239 8.35094 15.1744 7.53349 15.6117C6.71603 16.0489 5.79557 16.2567 4.86973 16.2128C3.94389 16.1689 3.04717 15.875 2.27466 15.3624C2.98921 16.086 3.90224 16.5811 4.89811 16.785C5.89399 16.989 6.92793 16.8925 7.86901 16.5079C8.81008 16.1233 9.61596 15.4678 10.1846 14.6245C10.7532 13.7812 11.059 12.7879 11.0633 11.7705V6.1032ZM12.0658 3.29932C11.4914 2.6762 11.1389 1.88049 11.0633 1.03607V0.678711H10.2943C10.3894 1.21547 10.5962 1.72619 10.9014 2.17769C11.2066 2.62919 11.6033 3.01134 12.0658 3.29932ZM4.05528 13.1862C3.78874 12.8373 3.6254 12.4206 3.58385 11.9834C3.54229 11.5462 3.62419 11.1061 3.82023 10.7132C4.01626 10.3203 4.31856 9.99042 4.69271 9.76101C5.06686 9.53161 5.49784 9.41193 5.9366 9.41562C6.17884 9.41554 6.41966 9.45263 6.65067 9.52557V6.68505C6.38062 6.64925 6.10825 6.63393 5.83589 6.63923V8.84751C5.27338 8.66954 4.66455 8.71001 4.13049 8.96087C3.59644 9.21173 3.17629 9.6546 2.95361 10.2014C2.73094 10.7482 2.72205 11.3588 2.92872 11.9119C3.13539 12.4649 3.54248 12.9199 4.06901 13.1862H4.05528Z" fill="#EE1D52"/>
<path fill-rule="evenodd" clip-rule="evenodd" d="M10.2481 5.42513C11.3771 6.23487 12.7317 6.66918 14.1206 6.66672V4.47677C13.3293 4.3093 12.6104 3.89746 12.0654 3.29932C11.6029 3.01134 11.2062 2.62918 10.901 2.17769C10.5958 1.72619 10.389 1.21547 10.2939 0.678711H8.27067V11.7705C8.26879 12.2615 8.11334 12.7395 7.82615 13.1375C7.53896 13.5355 7.13444 13.8335 6.66939 13.9897C6.20434 14.1459 5.7021 14.1524 5.23319 14.0082C4.76427 13.8641 4.35221 13.5767 4.05487 13.1862C3.58363 12.9482 3.20625 12.5583 2.9836 12.0793C2.76095 11.6003 2.70603 11.0602 2.82769 10.5461C2.94934 10.0321 3.24049 9.57401 3.65415 9.24588C4.06781 8.91775 4.57985 8.73867 5.10767 8.73755C5.34985 8.73832 5.59054 8.77539 5.82175 8.8475V6.63923C4.82277 6.66323 3.85253 6.97865 3.03013 7.54678C2.20773 8.1149 1.56896 8.91101 1.19223 9.83737C0.815501 10.7637 0.717211 11.78 0.909424 12.7615C1.10164 13.743 1.57599 14.6469 2.27425 15.3624C3.04692 15.8787 3.94505 16.1756 4.87297 16.2214C5.8009 16.2672 6.72386 16.0602 7.54354 15.6225C8.36323 15.1848 9.04894 14.5328 9.52764 13.7358C10.0063 12.9389 10.2601 12.0269 10.2619 11.097L10.2481 5.42513Z" fill="#18181C"/>
<path fill-rule="evenodd" clip-rule="evenodd" d="M14.1209 4.47612V3.8851C13.3942 3.8882 12.6815 3.68485 12.0656 3.29867C12.6093 3.89854 13.3287 4.31072 14.1209 4.47612ZM10.2942 0.678061C10.2942 0.572686 10.2621 0.462731 10.2484 0.357356V0H7.45615V11.0964C7.45373 11.7177 7.20511 12.3127 6.76487 12.7507C6.32462 13.1888 5.72872 13.4342 5.10794 13.4329C4.74241 13.4348 4.38165 13.35 4.05513 13.1855C4.35248 13.576 4.76453 13.8635 5.23345 14.0076C5.70237 14.1517 6.20461 14.1452 6.66966 13.9891C7.13471 13.8329 7.53922 13.5349 7.82641 13.1369C8.1136 12.7389 8.26905 12.2608 8.27093 11.7699V0.678061H10.2942ZM5.82201 6.634V6.00634C4.67303 5.85011 3.50506 6.08799 2.50844 6.68122C1.51183 7.27444 0.745339 8.18802 0.333896 9.27307C-0.0775466 10.3581 -0.109684 11.5507 0.242722 12.6563C0.595128 13.762 1.3113 14.7156 2.27451 15.3617C1.58154 14.6446 1.11224 13.741 0.923952 12.7613C0.735663 11.7816 0.836536 10.7683 1.21425 9.84502C1.59196 8.92177 2.23016 8.12861 3.05087 7.56245C3.87159 6.99628 4.83928 6.68162 5.83575 6.65691L5.82201 6.634Z" fill="#69C9D0"/>
</svg>
