<svg width="37" height="37" viewBox="0 0 37 37" fill="none" xmlns="http://www.w3.org/2000/svg">
<rect width="37" height="37" rx="18.5" fill="url(#paint0_linear_2437_6007)"/>
<g clip-path="url(#clip0_2437_6007)">
<g filter="url(#filter0_i_2437_6007)">
<path d="M25.8638 29.1602C27.3761 28.5758 28.5717 27.3802 29.156 25.8679C29.4326 25.1515 29.6262 24.3342 29.6788 23.1386C29.6912 22.8585 29.7009 22.6234 29.7099 22.3876V14.3994C29.7037 14.2328 29.6968 14.0592 29.6878 13.8642C29.6352 12.6686 29.4416 11.8471 29.165 11.1348C28.8794 10.379 28.4396 9.70206 27.8643 9.13987C27.3014 8.568 26.6203 8.12406 25.8728 7.84331C25.1564 7.56671 24.339 7.37309 23.1434 7.32053C21.9388 7.26314 21.5564 7.25 18.5021 7.25C15.4477 7.25 15.0646 7.26314 13.8649 7.31569C12.6693 7.36825 11.8478 7.56187 11.1355 7.83847C10.3797 8.12406 9.70275 8.56385 9.13987 9.13987C8.56869 9.70275 8.12475 10.3839 7.84331 11.1307C7.56671 11.8471 7.37309 12.6644 7.32053 13.86C7.26314 15.0646 7.25 15.447 7.25 18.5021C7.25 21.5571 7.26314 21.9395 7.31569 23.1393C7.36825 24.3349 7.56187 25.1571 7.83916 25.8686C8.12475 26.6244 8.56869 27.3014 9.13987 27.8643C9.70275 28.4355 10.3839 28.8801 11.1314 29.1608C11.8478 29.4374 12.6651 29.6311 13.8607 29.6836C15.0605 29.7369 15.4429 29.75 18.4979 29.75C21.553 29.75 21.9347 29.7369 23.1351 29.6836C24.3307 29.6311 25.1522 29.4374 25.8645 29.1608L25.8638 29.1602ZM18.5062 27.7274C15.5037 27.7274 15.1435 27.7142 13.961 27.6617C12.8622 27.6133 12.2689 27.4286 11.8734 27.2751C11.3859 27.0946 10.9419 26.8091 10.581 26.4356C10.2075 26.0705 9.92126 25.6314 9.74147 25.1432C9.58796 24.7477 9.40333 24.1495 9.35492 23.0556C9.30237 21.869 9.28923 21.5129 9.28923 18.5104C9.28923 15.5079 9.30237 15.1476 9.35492 13.9658C9.40333 12.867 9.58796 12.2737 9.74147 11.8782C9.92195 11.39 10.2075 10.9461 10.5858 10.5858C10.9502 10.2124 11.39 9.92679 11.8775 9.74631C12.273 9.5928 12.8712 9.40817 13.9651 9.35976C15.1518 9.30721 15.5079 9.29407 18.5097 9.29407C21.5115 9.29407 21.8724 9.30721 23.0549 9.35976C24.1537 9.40817 24.747 9.5928 25.1425 9.74631C25.6301 9.92679 26.074 10.2124 26.4343 10.5858C26.8077 10.9509 27.094 11.39 27.2737 11.8782C27.4273 12.2737 27.6119 12.8712 27.6603 13.9658C27.7128 15.1525 27.726 15.5086 27.726 18.5104C27.726 21.5122 27.7128 21.8641 27.6603 23.0508C27.6119 24.1495 27.4273 24.7429 27.2737 25.1384C26.8955 26.1189 26.1176 26.8969 25.1377 27.2744C24.7422 27.4279 24.1447 27.6126 23.0501 27.661C21.8635 27.7135 21.5073 27.7267 18.5055 27.7267L18.5062 27.7274Z" fill="white"/>
<path d="M18.5022 12.7212C15.3109 12.7212 12.7219 15.3102 12.7219 18.5014C12.7219 21.6927 15.3109 24.2817 18.5022 24.2817C21.6934 24.2817 24.2817 21.6927 24.2817 18.5014C24.2817 15.3102 21.6927 12.7212 18.5022 12.7212ZM18.5022 22.2501C16.4318 22.2501 14.7529 20.5711 14.7529 18.5007C14.7529 16.4304 16.4318 14.7514 18.5022 14.7514C20.5725 14.7514 22.2515 16.4304 22.2515 18.5007C22.2515 20.5711 20.5725 22.2501 18.5022 22.2501Z" fill="white"/>
<path d="M25.8596 12.4932C25.8596 11.7477 25.2552 11.144 24.5098 11.144C23.7643 11.144 23.1606 11.7484 23.1606 12.4932C23.1606 13.2379 23.765 13.8423 24.5098 13.8423C25.2545 13.8423 25.8596 13.2386 25.8596 12.4932Z" fill="white"/>
</g>
</g>
<defs>
<filter id="filter0_i_2437_6007" x="7.25" y="7.25" width="22.46" height="23" filterUnits="userSpaceOnUse" color-interpolation-filters="sRGB">
<feFlood flood-opacity="0" result="BackgroundImageFix"/>
<feBlend mode="normal" in="SourceGraphic" in2="BackgroundImageFix" result="shape"/>
<feColorMatrix in="SourceAlpha" type="matrix" values="0 0 0 0 0 0 0 0 0 0 0 0 0 0 0 0 0 0 127 0" result="hardAlpha"/>
<feOffset dy="0.5"/>
<feGaussianBlur stdDeviation="1.25"/>
<feComposite in2="hardAlpha" operator="arithmetic" k2="-1" k3="1"/>
<feColorMatrix type="matrix" values="0 0 0 0 0 0 0 0 0 0 0 0 0 0 0 0 0 0 0.1 0"/>
<feBlend mode="normal" in2="shape" result="effect1_innerShadow_2437_6007"/>
</filter>
<linearGradient id="paint0_linear_2437_6007" x1="18.5" y1="-1.15288" x2="18.5" y2="38.939" gradientUnits="userSpaceOnUse">
<stop stop-color="#FCA759"/>
<stop offset="0.19" stop-color="#E82D56"/>
<stop offset="0.74" stop-color="#A22DB4"/>
<stop offset="1" stop-color="#643DCE"/>
</linearGradient>
<clipPath id="clip0_2437_6007">
<rect width="22.5" height="22.5" fill="white" transform="translate(7.25 7.25)"/>
</clipPath>
</defs>
</svg>
