<svg width="37" height="37" viewBox="0 0 37 37" fill="none" xmlns="http://www.w3.org/2000/svg">
<rect width="37" height="37" rx="18.5" fill="url(#paint0_linear_2437_6012)"/>
<path d="M8.9763 19.4505C8.93472 19.4505 8.90157 19.4826 8.8963 19.529L8.75 20.6409L8.8963 21.7334C8.89683 21.7792 8.93472 21.8113 8.9763 21.8113C9.01682 21.8113 9.04945 21.7797 9.05629 21.7334L9.22944 20.6404L9.05629 19.5284C9.04998 19.4826 9.01682 19.4505 8.9763 19.4505ZM9.79886 18.8431C9.79202 18.7952 9.75782 18.7625 9.71571 18.7625C9.67361 18.7625 9.63835 18.7968 9.63256 18.8431C9.63256 18.8432 9.43574 20.6409 9.43574 20.6409L9.63256 22.3986C9.63835 22.4461 9.67309 22.4798 9.71571 22.4798C9.75782 22.4798 9.79202 22.4466 9.79886 22.3992L10.0225 20.6409L9.79886 18.8431ZM12.8965 17.185C12.816 17.185 12.7492 17.2508 12.7455 17.3351L12.5886 20.6425L12.7455 22.78C12.7497 22.8638 12.816 22.9296 12.8965 22.9296C12.9765 22.9296 13.0433 22.8638 13.0481 22.78V22.7801L13.2249 20.6425L13.0481 17.3351C13.0433 17.2514 12.977 17.185 12.8965 17.185V17.185ZM11.293 18.3344C11.2309 18.3344 11.1803 18.3839 11.1756 18.4497L10.9993 20.641L11.1756 22.7585C11.1803 22.8243 11.2309 22.8738 11.293 22.8738C11.354 22.8738 11.4051 22.8243 11.4103 22.7585L11.6108 20.641L11.4103 18.4492C11.4098 18.3833 11.3545 18.3338 11.293 18.3338V18.3344ZM14.5259 22.9281C14.6259 22.9281 14.7074 22.8475 14.7111 22.7442L14.8648 20.6431L14.7116 16.24C14.7074 16.1368 14.6264 16.0562 14.5264 16.0562C14.4253 16.0562 14.3438 16.1373 14.3406 16.2406L14.2043 20.6431L14.3406 22.7453C14.3438 22.848 14.4253 22.9286 14.5259 22.9286V22.9281ZM17.8614 22.9381C17.9993 22.9381 18.1124 22.8248 18.1151 22.6852V22.6868V22.6852L18.2224 20.6441L18.1151 15.559C18.1124 15.4199 17.9987 15.3061 17.8614 15.3061C17.7235 15.3061 17.6098 15.4194 17.6077 15.5595L17.5119 20.6431C17.5119 20.6462 17.6077 22.6874 17.6077 22.6874C17.6098 22.8254 17.724 22.9391 17.8614 22.9391V22.9381ZM16.181 22.9312C16.301 22.9312 16.3973 22.8348 16.4004 22.7121V22.7137L16.531 20.6441L16.4004 16.209C16.3973 16.0862 16.3005 15.9904 16.181 15.9904C16.0605 15.9904 15.9636 16.0862 15.961 16.209L15.8452 20.6441L15.9615 22.7132C15.9642 22.8343 16.0605 22.9307 16.1815 22.9307L16.181 22.9312ZM12.0924 22.9112C12.1634 22.9112 12.2213 22.8543 12.2266 22.779L12.4155 20.6415L12.2266 18.6077C12.226 18.5324 12.1639 18.4761 12.0924 18.4761C12.0203 18.4761 11.9624 18.5329 11.9582 18.6088L11.7919 20.6415L11.9582 22.779C11.9629 22.8543 12.0203 22.9112 12.0924 22.9112ZM10.503 22.7943C10.5551 22.7943 10.5972 22.7532 10.603 22.6963L10.8151 20.641L10.603 18.5082C10.5967 18.4513 10.5546 18.4102 10.5025 18.4102C10.4499 18.4102 10.4078 18.4513 10.4025 18.5082L10.2157 20.641L10.4025 22.6958C10.403 22.7527 10.4499 22.7943 10.5025 22.7943H10.503ZM17.0193 16.1347C16.8894 16.1347 16.7852 16.2385 16.7825 16.3707L16.6767 20.6436L16.7825 22.7C16.7852 22.8306 16.8894 22.9344 17.0193 22.9344C17.1493 22.9344 17.253 22.8312 17.2562 22.6984V22.7L17.3751 20.6436L17.2562 16.3696C17.253 16.2374 17.1493 16.1342 17.0193 16.1342V16.1347ZM13.7096 22.9323C13.7996 22.9323 13.8738 22.8591 13.878 22.7653L14.0433 20.6425L13.878 16.5787C13.8733 16.485 13.7996 16.4117 13.7096 16.4117C13.6191 16.4117 13.5449 16.485 13.5412 16.5787L13.3949 20.6425L13.5412 22.7653C13.5449 22.858 13.6191 22.9312 13.7096 22.9312V22.9323ZM15.5542 22.7311V22.73L15.6963 20.642L15.5542 16.0904C15.551 15.9772 15.4616 15.8887 15.3516 15.8887C15.2411 15.8887 15.1521 15.9772 15.149 16.0904L15.0232 20.6415L15.1495 22.7305C15.1527 22.8427 15.2416 22.9307 15.3521 22.9307C15.4621 22.9307 15.551 22.8422 15.5547 22.7295L15.5542 22.7311ZM26.2902 18.0183C25.9534 18.0183 25.6318 18.0868 25.3387 18.2095C25.1429 15.9904 23.2841 14.25 21.0164 14.25C20.4617 14.25 19.9207 14.3596 19.4428 14.5444C19.2571 14.6161 19.2076 14.6904 19.206 14.8342V22.6484C19.2081 22.799 19.325 22.9244 19.4718 22.9397C19.4781 22.9397 26.2465 22.9439 26.2902 22.9439C27.6485 22.9439 28.75 21.8414 28.75 20.4819C28.75 19.1218 27.649 18.0194 26.2902 18.0194V18.0183ZM18.7029 14.8273C18.555 14.8273 18.434 14.9485 18.4319 15.0981L18.3208 20.6441L18.4319 22.6568C18.434 22.8038 18.555 22.9249 18.7029 22.9249C18.8503 22.9249 18.9713 22.8038 18.9739 22.6547V22.6573L19.0944 20.6441L18.9739 15.0975C18.9718 14.949 18.8503 14.8273 18.7029 14.8273Z" fill="white"/>
<defs>
<linearGradient id="paint0_linear_2437_6012" x1="21.0572" y1="38.1034" x2="3.76021" y2="-7.92336e-07" gradientUnits="userSpaceOnUse">
<stop offset="0.0729167" stop-color="#FF433A"/>
<stop offset="0.973958" stop-color="#FF9436"/>
</linearGradient>
</defs>
</svg>
