<svg width="37" height="37" viewBox="0 0 37 37" fill="none" xmlns="http://www.w3.org/2000/svg">
<rect width="37" height="37" rx="18.5" fill="url(#paint0_linear_2437_6008)"/>
<g filter="url(#filter0_i_2437_6008)">
<path fill-rule="evenodd" clip-rule="evenodd" d="M22.8512 15.977C24.1888 16.9287 25.7906 17.4371 27.4316 17.431V14.1757C27.109 14.1766 26.7873 14.142 26.4722 14.0726V16.666C24.8274 16.6689 23.2233 16.1546 21.8863 15.1957V21.8907C21.8823 22.9893 21.5813 24.0663 21.0152 25.0075C20.4492 25.9488 19.6392 26.7192 18.6712 27.237C17.7031 27.7548 16.6131 28.0008 15.5167 27.9488C14.4203 27.8968 13.3584 27.5489 12.4436 26.9418C13.2898 27.7987 14.371 28.385 15.5503 28.6265C16.7297 28.868 17.9541 28.7538 19.0685 28.2983C20.1829 27.8428 21.1372 27.0666 21.8106 26.0679C22.484 25.0693 22.8462 23.8931 22.8512 22.6882V15.977ZM24.0383 12.6566C23.3581 11.9187 22.9408 10.9764 22.8512 9.97641V9.55322H21.9405C22.0531 10.1889 22.2981 10.7937 22.6595 11.3283C23.0209 11.863 23.4907 12.3156 24.0383 12.6566ZM14.5522 24.3647C14.2366 23.9516 14.0432 23.4581 13.994 22.9404C13.9447 22.4226 14.0417 21.9015 14.2739 21.4362C14.506 20.9709 14.864 20.5802 15.3071 20.3086C15.7502 20.0369 16.2605 19.8952 16.7801 19.8996C17.067 19.8995 17.3522 19.9434 17.6257 20.0298V16.666C17.3059 16.6236 16.9834 16.6055 16.6609 16.6117V19.2268C15.9947 19.016 15.2737 19.064 14.6413 19.361C14.0089 19.6581 13.5113 20.1826 13.2476 20.8301C12.9839 21.4776 12.9734 22.2007 13.2182 22.8557C13.4629 23.5106 13.945 24.0493 14.5685 24.3647H14.5522Z" fill="#EE1D52"/>
<path fill-rule="evenodd" clip-rule="evenodd" d="M21.8858 15.174C23.2228 16.1329 24.8269 16.6472 26.4717 16.6443V14.0509C25.5346 13.8526 24.6833 13.3649 24.0378 12.6566C23.4902 12.3156 23.0204 11.863 22.659 11.3283C22.2976 10.7937 22.0526 10.1889 21.94 9.55322H19.5441V22.6882C19.5419 23.2696 19.3578 23.8357 19.0177 24.3071C18.6776 24.7784 18.1986 25.1313 17.6479 25.3163C17.0972 25.5012 16.5024 25.5089 15.9471 25.3382C15.3918 25.1675 14.9038 24.8271 14.5517 24.3647C13.9937 24.0829 13.5468 23.6211 13.2831 23.0539C13.0195 22.4867 12.9544 21.8471 13.0985 21.2383C13.2425 20.6296 13.5873 20.0871 14.0772 19.6986C14.567 19.31 15.1734 19.0979 15.7985 19.0966C16.0853 19.0975 16.3703 19.1414 16.6441 19.2268V16.6117C15.4611 16.6402 14.3121 17.0137 13.3382 17.6865C12.3643 18.3592 11.6079 19.302 11.1618 20.399C10.7156 21.496 10.5992 22.6995 10.8269 23.8618C11.0545 25.0241 11.6162 26.0945 12.4431 26.9418C13.3581 27.5532 14.4217 27.9048 15.5205 27.959C16.6194 28.0133 17.7124 27.7682 18.683 27.2498C19.6537 26.7315 20.4658 25.9593 21.0326 25.0156C21.5995 24.0718 21.9 22.9919 21.9021 21.8907L21.8858 15.174Z" fill="white"/>
<path fill-rule="evenodd" clip-rule="evenodd" d="M26.4721 14.0507V13.3508C25.6115 13.3544 24.7675 13.1136 24.0382 12.6563C24.682 13.3667 25.534 13.8548 26.4721 14.0507ZM21.9404 9.55297C21.9404 9.42818 21.9025 9.29797 21.8862 9.17318V8.75H18.5797V21.8904C18.5768 22.6262 18.2824 23.3308 17.761 23.8496C17.2397 24.3683 16.534 24.6589 15.7989 24.6574C15.366 24.6596 14.9388 24.5592 14.5521 24.3644C14.9043 24.8268 15.3922 25.1673 15.9475 25.3379C16.5028 25.5086 17.0976 25.5009 17.6483 25.316C18.199 25.1311 18.678 24.7782 19.0181 24.3068C19.3582 23.8355 19.5423 23.2694 19.5445 22.688V9.55297H21.9404ZM16.6445 16.606V15.8628C15.2839 15.6778 13.9007 15.9595 12.7205 16.662C11.5403 17.3645 10.6326 18.4463 10.1454 19.7313C9.65817 21.0162 9.62011 22.4284 10.0374 23.7378C10.4548 25.0471 11.3029 26.1764 12.4435 26.9415C11.6229 26.0923 11.0671 25.0223 10.8442 23.8621C10.6212 22.7019 10.7406 21.5019 11.1879 20.4086C11.6352 19.3152 12.391 18.376 13.3629 17.7055C14.3348 17.0351 15.4807 16.6624 16.6608 16.6332L16.6445 16.606Z" fill="#69C9D0"/>
</g>
<defs>
<filter id="filter0_i_2437_6008" x="7.25" y="7.25" width="22.5" height="23" filterUnits="userSpaceOnUse" color-interpolation-filters="sRGB">
<feFlood flood-opacity="0" result="BackgroundImageFix"/>
<feBlend mode="normal" in="SourceGraphic" in2="BackgroundImageFix" result="shape"/>
<feColorMatrix in="SourceAlpha" type="matrix" values="0 0 0 0 0 0 0 0 0 0 0 0 0 0 0 0 0 0 127 0" result="hardAlpha"/>
<feOffset dy="0.5"/>
<feGaussianBlur stdDeviation="1.25"/>
<feComposite in2="hardAlpha" operator="arithmetic" k2="-1" k3="1"/>
<feColorMatrix type="matrix" values="0 0 0 0 0 0 0 0 0 0 0 0 0 0 0 0 0 0 0.1 0"/>
<feBlend mode="normal" in2="shape" result="effect1_innerShadow_2437_6008"/>
</filter>
<linearGradient id="paint0_linear_2437_6008" x1="0.752042" y1="2.58572e-07" x2="32.5885" y2="39.8582" gradientUnits="userSpaceOnUse">
<stop/>
<stop offset="1" stop-color="#323232"/>
</linearGradient>
</defs>
</svg>
