<svg width="19" height="19" viewBox="0 0 19 19" fill="none" xmlns="http://www.w3.org/2000/svg">
<path d="M16.8202 5.27815H13.8911L14.4189 2.72899C14.4318 2.65387 14.4284 2.57685 14.4087 2.5032C14.3891 2.42955 14.3537 2.36103 14.3051 2.30235C14.2564 2.24367 14.1956 2.19623 14.1269 2.16328C14.0582 2.13033 13.9831 2.11266 13.9069 2.11149H12.8514C12.7294 2.1085 12.6101 2.14789 12.5139 2.22295C12.4176 2.29801 12.3504 2.4041 12.3236 2.52315L11.7852 5.27815H8.93525L9.46303 2.72899C9.47581 2.65557 9.4729 2.58029 9.45449 2.50808C9.43608 2.43588 9.40259 2.36839 9.35623 2.31005C9.30986 2.25172 9.25167 2.20387 9.18547 2.16964C9.11928 2.13542 9.04659 2.1156 8.97219 2.11149H7.91664C7.79463 2.1085 7.67537 2.14789 7.57914 2.22295C7.48291 2.29801 7.41567 2.4041 7.38886 2.52315L6.86108 5.27815H3.69441C3.57094 5.27566 3.45051 5.31655 3.35407 5.3937C3.25764 5.47085 3.19131 5.57937 3.16664 5.70037L2.95025 6.75593C2.9344 6.8335 2.9362 6.91364 2.95553 6.99042C2.97485 7.0672 3.0112 7.13865 3.06189 7.19947C3.11257 7.26029 3.17629 7.30893 3.24833 7.34179C3.32036 7.37464 3.39887 7.39087 3.47802 7.38926H6.40719L5.54164 11.6115H2.37497C2.2515 11.609 2.13106 11.6499 2.03463 11.727C1.93819 11.8042 1.87187 11.9127 1.84719 12.0337L1.6308 13.0893C1.61495 13.1668 1.61676 13.247 1.63608 13.3238C1.65541 13.4005 1.69176 13.472 1.74244 13.5328C1.79313 13.5936 1.85685 13.6423 1.92889 13.6751C2.00092 13.708 2.07942 13.7242 2.15858 13.7226H5.10886L4.58108 16.2718C4.56789 16.3482 4.5717 16.4266 4.59225 16.5014C4.6128 16.5762 4.64957 16.6455 4.69996 16.7045C4.75035 16.7634 4.81312 16.8105 4.88379 16.8425C4.95446 16.8744 5.03131 16.8904 5.10886 16.8893H6.16441C6.28189 16.8863 6.395 16.8441 6.48583 16.7696C6.57665 16.695 6.63999 16.5922 6.6658 16.4776L7.21469 13.7226H10.0647L9.53691 16.2718C9.52413 16.3452 9.52704 16.4205 9.54545 16.4927C9.56386 16.5649 9.59735 16.6324 9.64371 16.6907C9.69008 16.749 9.74827 16.7969 9.81447 16.8311C9.88066 16.8653 9.95335 16.8852 10.0277 16.8893H11.0833C11.2053 16.8922 11.3246 16.8529 11.4208 16.7778C11.517 16.7027 11.5843 16.5967 11.6111 16.4776L12.1652 13.7226H15.3319C15.4554 13.7251 15.5758 13.6842 15.6723 13.6071C15.7687 13.5299 15.835 13.4214 15.8597 13.3004L16.0708 12.2448C16.0867 12.1672 16.0848 12.0871 16.0655 12.0103C16.0462 11.9335 16.0098 11.8621 15.9592 11.8013C15.9085 11.7405 15.8448 11.6918 15.7727 11.659C15.7007 11.6261 15.6222 11.6099 15.543 11.6115H12.598L13.4583 7.38926H16.625C16.7484 7.39175 16.8689 7.35087 16.9653 7.27372C17.0617 7.19657 17.1281 7.08805 17.1527 6.96704L17.3691 5.91149C17.3855 5.83211 17.3834 5.75003 17.3629 5.67161C17.3424 5.5932 17.3041 5.52055 17.2511 5.4593C17.198 5.39806 17.1315 5.34986 17.0568 5.31844C16.9821 5.28703 16.9011 5.27324 16.8202 5.27815ZM10.4869 11.6115H7.63691L8.50247 7.38926H11.3525L10.4869 11.6115Z" fill="#2A2A2A"/>
</svg>
