<svg width="20" height="20" viewBox="0 0 20 20" fill="none" xmlns="http://www.w3.org/2000/svg">
<path d="M1.66699 15V5.2665C1.66699 3.82875 1.66699 3 1.99624 3C2.38699 3 2.66824 3.495 3.35449 4.70475L8.22949 13.2952C8.91574 14.505 9.18424 15 9.58699 15C9.91699 15 9.91699 14.1713 9.91699 12.7335V3M12.167 9.75H16.667M12.602 3.435C13.1832 2.85525 15.6507 2.85525 16.232 3.435C16.8117 4.01625 16.8117 6.4845 16.232 7.065C15.6507 7.6455 13.1832 7.6455 12.602 7.065C12.0222 6.4845 12.0222 4.01625 12.602 3.435Z" stroke="#2A2A2A" stroke-width="2" stroke-linecap="round" stroke-linejoin="round"/>
</svg>
