<svg width="20" height="20" viewBox="0 0 20 20" fill="none" xmlns="http://www.w3.org/2000/svg">
<path d="M17.7087 7.43018V4.86018C17.7087 4.1788 17.438 3.52532 16.9562 3.04351C16.4744 2.56169 15.8209 2.29102 15.1395 2.29102H12.5695M12.5695 17.7077H15.1395C15.8209 17.7077 16.4744 17.437 16.9562 16.9552C17.438 16.4734 17.7087 15.8199 17.7087 15.1385V12.5685M2.29199 12.5685V15.1385C2.29199 15.8199 2.56267 16.4734 3.04448 16.9552C3.5263 17.437 4.17977 17.7077 4.86116 17.7077H7.43116M7.43116 2.29102H4.86116C4.17977 2.29102 3.5263 2.56169 3.04448 3.04351C2.56267 3.52532 2.29199 4.1788 2.29199 4.86018V7.43018M4.94949 6.73435V13.2643M7.47533 6.73435V13.2643M10.0003 6.73435V13.2643M12.5253 6.73435V13.2643M15.0512 6.73435V13.2643" stroke="#2A2A2A" stroke-width="2" stroke-linecap="round" stroke-linejoin="round"/>
</svg>
