<svg width="18" height="17" viewBox="0 0 18 17" fill="none" xmlns="http://www.w3.org/2000/svg">
<path d="M12.2778 14.6389C11.1551 14.6399 10.0537 14.3321 9.09419 13.749C8.13471 13.166 7.35409 12.3303 6.83778 11.3333H12.2778L13.2222 9.44445H6.21444C6.16722 9.13278 6.13889 8.82111 6.13889 8.5C6.13889 8.17889 6.16722 7.86722 6.21444 7.55556H12.2778L13.2222 5.66667H6.83778C7.35493 4.67038 8.13573 3.83524 9.09503 3.25234C10.0543 2.66943 11.1553 2.36115 12.2778 2.36111C13.7983 2.36111 15.1961 2.91834 16.2728 3.84389L17.9444 2.17222C16.3891 0.772443 14.3703 -0.00143833 12.2778 2.00693e-06C8.57556 2.00693e-06 5.44 2.37056 4.26889 5.66667H0.944444L0 7.55556H3.83444C3.75831 8.18289 3.75831 8.81712 3.83444 9.44445H0.944444L0 11.3333H4.26889C5.44 14.6294 8.57556 17 12.2778 17C14.4594 17 16.4428 16.1783 17.9444 14.8278L16.2633 13.1561C15.1961 14.0817 13.8078 14.6389 12.2778 14.6389Z" fill="#2A2A2A"/>
</svg>
