<svg width="24" height="24" viewBox="0 0 24 24" fill="none" xmlns="http://www.w3.org/2000/svg">
<path d="M4.253 20.302C5.655 21.5 7.77 21.5 12 21.5C16.23 21.5 18.345 21.5 19.747 20.302C19.947 20.1313 20.132 19.9463 20.302 19.747C21.5 18.345 21.5 16.23 21.5 12C21.5 7.77 21.5 5.655 20.302 4.253C20.1313 4.053 19.9463 3.868 19.747 3.698C18.345 2.5 16.23 2.5 12 2.5C7.77 2.5 5.655 2.5 4.253 3.698C4.053 3.86867 3.868 4.05367 3.698 4.253C2.5 5.655 2.5 7.77 2.5 12C2.5 16.23 2.5 18.345 3.698 19.747C3.86867 19.947 4.05367 20.132 4.253 20.302Z" stroke="#2A2A2A" stroke-linecap="round" stroke-linejoin="round"/>
<path d="M9.05198 16.052L7.44698 16.66C7.27591 16.7266 7.1383 16.8584 7.06441 17.0264C6.99052 17.1944 6.98641 17.3849 7.05298 17.556C7.11955 17.7271 7.25134 17.8647 7.41938 17.9386C7.58741 18.0125 7.77791 18.0166 7.94898 17.95L8.87098 17.58C9.05654 17.5059 9.21564 17.3778 9.32775 17.2124C9.43986 17.047 9.49985 16.8518 9.49998 16.652V9.5M9.49998 9.5L16 8.201V15.151C16 15.351 15.9402 15.5464 15.828 15.712C15.7159 15.8776 15.5567 16.0058 15.371 16.08L14.449 16.449C14.2779 16.5156 14.0874 16.5115 13.9194 16.4376C13.7513 16.3637 13.6195 16.2261 13.553 16.055C13.4864 15.8839 13.4905 15.6934 13.5644 15.5254C13.6383 15.3574 13.7759 15.2256 13.947 15.159L15.552 14.552M9.49998 9.5V8.659M9.49998 8.659V7.817L16 6.5V7.35M9.49998 8.659L16 7.35M16 8.2V7.35" stroke="#2A2A2A" stroke-width="1.5" stroke-linecap="round" stroke-linejoin="round"/>
</svg>
