<svg width="24" height="24" viewBox="0 0 24 24" fill="none" xmlns="http://www.w3.org/2000/svg">
<path d="M11.3993 2.1009L2.20685 11.2934C2.01938 11.4809 1.91406 11.7352 1.91406 12.0004C1.91406 12.2656 2.01938 12.5199 2.20685 12.7074L11.3998 21.9004C11.5874 22.0879 11.8417 22.1932 12.1068 22.1932C12.372 22.1932 12.6263 22.0879 12.8138 21.9004L22.0063 12.7079C22.1938 12.5204 22.2991 12.2661 22.2991 12.0009C22.2991 11.7357 22.1938 11.4814 22.0063 11.2939L12.8133 2.1004C12.6258 1.91293 12.3715 1.80762 12.1063 1.80762C11.8412 1.80762 11.5869 1.91293 11.3993 2.1004V2.1009Z" stroke="#2A2A2A" stroke-width="1.5" stroke-linejoin="round"/>
<path d="M9 12H15M12 9V15" stroke="#2A2A2A" stroke-width="1.5" stroke-linecap="round"/>
</svg>
