<svg width="24" height="24" viewBox="0 0 24 24" fill="none" xmlns="http://www.w3.org/2000/svg">
<path d="M19.001 10H22.001V12H20.001V17.5C20.001 18.2 19.7593 18.7917 19.276 19.275C18.7926 19.7583 18.201 20 17.501 20C16.801 20 16.2093 19.7583 15.726 19.275C15.2426 18.7917 15.176 18.2 15.176 17.5C15.176 16.8 15.2426 16.4833 15.726 16C16.2093 15.5167 16.801 15.5 17.501 15.5C18.001 15.5 17.8343 15.4747 18.001 15.5C18.1676 15.5253 18.801 15.6904 19.001 15.7731V10ZM3.00098 20V17.2C3.00098 16.6167 3.14698 16.0917 3.43898 15.625C3.73098 15.1583 4.11831 14.8 4.60098 14.55C5.63431 14.0333 6.68431 13.646 7.75098 13.388C8.81764 13.13 9.90098 13.0007 11.001 13C11.701 13 12.397 13.0543 13.089 13.163C13.781 13.2717 14.4766 13.434 15.176 13.65C14.8426 13.85 14.5426 14.0917 14.276 14.375C14.1731 14.4843 13.826 14.8235 13.826 14.8235C13.3926 14.7235 12.4256 14.55 12.001 14.5C11.2735 14.4143 10.001 14.5 10.001 14.5C10.001 14.5 8.66764 14.5901 7.75098 14.8235C6.83431 15.0568 6.38431 15.2917 5.50098 15.725C5.35098 15.8083 4.59231 16.35 4.50098 16.5C4.40964 16.65 4.28866 17.0167 4.28799 17.2V19H13.089C13.001 19 13.264 19 13.264 19C13.264 19 13.56 19.6667 13.776 20H3.00098ZM11.001 12C9.90098 12 8.95931 11.6083 8.17598 10.825C7.39264 10.0417 7.00098 9.1 7.00098 8C7.00098 6.9 7.39264 5.95833 8.17598 5.175C8.95931 4.39167 9.90098 4 11.001 4C12.101 4 13.0426 4.39167 13.826 5.175C14.6093 5.95833 15.001 6.9 15.001 8C15.001 9.1 14.6093 10.0417 13.826 10.825C13.0426 11.6083 12.101 12 11.001 12ZM11.001 10.825C11.551 10.825 12.2184 10.7813 13.001 10C13.6312 9.37087 13.8266 8.55067 13.826 8C13.8253 7.44933 13.826 7.35288 13.501 6.5C13.001 5.5 12.001 5 11.001 5C10.001 5 9.00098 5.5 8.50098 6.5C8.17598 7.47289 8.17798 7.452 8.17598 8C8.17398 8.548 8.50098 9.5 9.00098 10C9.50098 10.5 10.4536 10.8277 11.001 10.825Z" fill="#2A2A2A"/>
</svg>
