<svg width="14" height="14" viewBox="0 0 14 14" fill="none" xmlns="http://www.w3.org/2000/svg">
<g clip-path="url(#clip0_849_4664)">
<path d="M6.41602 2.33301H2.33268C2.02326 2.33301 1.72652 2.45592 1.50772 2.67472C1.28893 2.89351 1.16602 3.19026 1.16602 3.49967V11.6663C1.16602 11.9758 1.28893 12.2725 1.50772 12.4913C1.72652 12.7101 2.02326 12.833 2.33268 12.833H10.4993C10.8088 12.833 11.1055 12.7101 11.3243 12.4913C11.5431 12.2725 11.666 11.9758 11.666 11.6663V7.58301" stroke="#2A2A2A" stroke-linecap="round" stroke-linejoin="round"/>
<path d="M10.791 1.45814C11.0231 1.22608 11.3378 1.0957 11.666 1.0957C11.9942 1.0957 12.309 1.22608 12.541 1.45814C12.7731 1.6902 12.9035 2.00495 12.9035 2.33314C12.9035 2.66133 12.7731 2.97608 12.541 3.20814L6.99935 8.74981L4.66602 9.33314L5.24935 6.99981L10.791 1.45814Z" stroke="#2A2A2A" stroke-linecap="round" stroke-linejoin="round"/>
</g>
<defs>
<clipPath id="clip0_849_4664">
<rect width="14" height="14" fill="white"/>
</clipPath>
</defs>
</svg>
