<svg width="24" height="23" viewBox="0 0 24 23" fill="none" xmlns="http://www.w3.org/2000/svg">
<g filter="url(#filter0_i_1_65434)">
<path d="M19.2326 21.4495C20.714 20.9041 21.8851 19.7882 22.4575 18.3767C22.7284 17.7081 22.918 16.9452 22.9695 15.8293C22.9817 15.568 22.9912 15.3485 23 15.1284V7.67278C22.9939 7.51724 22.9871 7.35525 22.9783 7.17325C22.9268 6.05735 22.7372 5.29062 22.4663 4.62585C22.1865 3.92043 21.7557 3.28859 21.1922 2.76388C20.6408 2.23013 19.9736 1.81579 19.2414 1.55375C18.5397 1.29559 17.7391 1.11488 16.568 1.06583C15.3881 1.01226 15.0135 1 12.0217 1C9.02986 1 8.65462 1.01226 7.47943 1.06131C6.30831 1.11036 5.50363 1.29108 4.80597 1.54924C4.06564 1.81579 3.40252 2.22626 2.85117 2.76388C2.29169 3.28923 1.85683 3.92495 1.58116 4.62198C1.31022 5.29062 1.12057 6.05348 1.06909 7.16937C1.01287 8.29366 1 8.65056 1 11.5019C1 14.3533 1.01287 14.7102 1.06435 15.83C1.11582 16.9459 1.30548 17.7133 1.57709 18.3774C1.85683 19.0828 2.29169 19.7146 2.85117 20.24C3.40252 20.7731 4.0697 21.1881 4.80191 21.4501C5.50363 21.7083 6.30425 21.889 7.47537 21.938C8.65055 21.9877 9.02512 22 12.0176 22C15.0101 22 15.384 21.9877 16.5599 21.938C17.731 21.889 18.5357 21.7083 19.2333 21.4501L19.2326 21.4495ZM12.0257 20.1122C9.08473 20.1122 8.73183 20.0999 7.57358 20.0509C6.49729 20.0057 5.91613 19.8334 5.52869 19.6901C5.05117 19.5217 4.61632 19.2551 4.26275 18.9066C3.89698 18.5658 3.61656 18.156 3.44046 17.7004C3.29009 17.3312 3.10923 16.7729 3.06182 15.7519C3.01034 14.6444 2.99747 14.312 2.99747 11.5097C2.99747 8.70736 3.01034 8.37111 3.06182 7.26812C3.10923 6.24258 3.29009 5.68883 3.44046 5.31966C3.61724 4.86401 3.89698 4.44966 4.26749 4.11341C4.62445 3.76489 5.05523 3.49834 5.53276 3.32989C5.9202 3.18661 6.5061 3.01429 7.57765 2.96911C8.73996 2.92006 9.08879 2.9078 12.0291 2.9078C14.9695 2.9078 15.323 2.92006 16.4813 2.96911C17.5576 3.01429 18.1387 3.18661 18.5262 3.32989C19.0037 3.49834 19.4385 3.76489 19.7914 4.11341C20.1572 4.45418 20.4376 4.86401 20.6137 5.31966C20.7641 5.68883 20.945 6.24645 20.9924 7.26812C21.0438 8.37562 21.0567 8.708 21.0567 11.5097C21.0567 14.3114 21.0438 14.6399 20.9924 15.7474C20.945 16.7729 20.7641 17.3267 20.6137 17.6958C20.2432 18.611 19.4812 19.3371 18.5214 19.6895C18.134 19.8328 17.5488 20.0051 16.4765 20.0503C15.3142 20.0993 14.9654 20.1116 12.0251 20.1116L12.0257 20.1122Z" fill="#202934"/>
<path d="M12.0213 6.07617C8.89534 6.07617 6.35938 8.49727 6.35938 11.4816C6.35938 14.4659 8.89534 16.887 12.0213 16.887C15.1472 16.887 17.6825 14.4659 17.6825 11.4816C17.6825 8.49727 15.1465 6.07617 12.0213 6.07617ZM12.0213 14.9871C9.9933 14.9871 8.34872 13.4171 8.34872 11.481C8.34872 9.54485 9.9933 7.97476 12.0213 7.97476C14.0492 7.97476 15.6938 9.54485 15.6938 11.481C15.6938 13.4171 14.0492 14.9871 12.0213 14.9871Z" fill="#202934"/>
<path d="M19.2296 5.86515C19.2296 5.16805 18.6376 4.60352 17.9074 4.60352C17.1773 4.60352 16.5859 5.16869 16.5859 5.86515C16.5859 6.5616 17.1779 7.12678 17.9074 7.12678C18.6369 7.12678 19.2296 6.56225 19.2296 5.86515Z" fill="#202934"/>
</g>
<defs>
<filter id="filter0_i_1_65434" x="1" y="1" width="22" height="21.5" filterUnits="userSpaceOnUse" color-interpolation-filters="sRGB">
<feFlood flood-opacity="0" result="BackgroundImageFix"/>
<feBlend mode="normal" in="SourceGraphic" in2="BackgroundImageFix" result="shape"/>
<feColorMatrix in="SourceAlpha" type="matrix" values="0 0 0 0 0 0 0 0 0 0 0 0 0 0 0 0 0 0 127 0" result="hardAlpha"/>
<feOffset dy="0.5"/>
<feGaussianBlur stdDeviation="1.25"/>
<feComposite in2="hardAlpha" operator="arithmetic" k2="-1" k3="1"/>
<feColorMatrix type="matrix" values="0 0 0 0 0 0 0 0 0 0 0 0 0 0 0 0 0 0 0.1 0"/>
<feBlend mode="normal" in2="shape" result="effect1_innerShadow_1_65434"/>
</filter>
</defs>
</svg>
