<svg xmlns="http://www.w3.org/2000/svg" width="32" height="32" fill="none" viewBox="0 0 32 32">
  <rect width="32" height="32" fill="url(#a)" rx="8"/>
  <g clip-path="url(#b)" filter="url(#c)">
    <path fill="#fff" d="M23.855 27.37a6.135 6.135 0 0 0 3.511-3.51c.295-.765.502-1.637.558-2.912.013-.299.024-.55.033-.801v-8.521a62.232 62.232 0 0 0-.023-.57c-.056-1.276-.263-2.152-.558-2.912a5.856 5.856 0 0 0-1.387-2.128 5.894 5.894 0 0 0-2.125-1.383c-.764-.295-1.636-.502-2.911-.558C19.668 4.014 19.26 4 16.003 4c-3.259 0-3.667.014-4.947.07-1.275.056-2.152.263-2.911.558a5.858 5.858 0 0 0-2.13 1.388 5.917 5.917 0 0 0-1.382 2.123c-.295.765-.502 1.636-.558 2.912C4.014 12.336 4 12.743 4 16.002c0 3.259.014 3.667.07 4.947.056 1.275.263 2.152.558 2.91a5.924 5.924 0 0 0 1.388 2.13 5.912 5.912 0 0 0 2.124 1.383c.764.295 1.636.501 2.911.557 1.28.057 1.688.071 4.947.071 3.258 0 3.666-.014 4.946-.07 1.275-.057 2.152-.263 2.911-.558v-.001Zm-7.848-1.527c-3.203 0-3.587-.015-4.849-.07-1.172-.052-1.805-.25-2.226-.413a3.706 3.706 0 0 1-1.379-.895 3.727 3.727 0 0 1-.895-1.379c-.164-.422-.361-1.06-.413-2.227-.056-1.265-.07-1.645-.07-4.848s.014-3.587.07-4.847c.052-1.172.249-1.805.413-2.227a3.64 3.64 0 0 1 .9-1.379 3.733 3.733 0 0 1 1.378-.895c.422-.164 1.06-.36 2.227-.413 1.265-.056 1.645-.07 4.847-.07 3.202 0 3.587.014 4.849.07 1.172.052 1.804.249 2.226.413.52.192.994.497 1.378.895.398.39.704.858.896 1.379.163.422.36 1.059.412 2.227.056 1.265.07 1.645.07 4.847 0 3.202-.014 3.577-.07 4.843-.052 1.172-.249 1.805-.412 2.227a3.98 3.98 0 0 1-2.279 2.278c-.422.164-1.059.361-2.227.413-1.265.056-1.645.07-4.847.07Z"/>
    <path fill="#fff" d="M16.002 9.836A6.167 6.167 0 0 0 9.836 16a6.167 6.167 0 0 0 6.166 6.166 6.166 6.166 0 0 0 0-12.331Zm0 10.164a4 4 0 1 1 0-8 4 4 0 0 1 0 8ZM23.85 9.592a1.44 1.44 0 1 0-2.878 0 1.44 1.44 0 0 0 2.878 0Z"/>
  </g>
  <defs>
    <linearGradient id="a" x1="16" x2="16" y1="-.997" y2="33.677" gradientUnits="userSpaceOnUse">
      <stop stop-color="#FCA759"/>
      <stop offset=".19" stop-color="#E82D56"/>
      <stop offset=".74" stop-color="#A22DB4"/>
      <stop offset="1" stop-color="#643DCE"/>
    </linearGradient>
    <clipPath id="b">
      <path fill="#fff" d="M4 4h24v24H4z"/>
    </clipPath>
    <filter id="c" width="23.957" height="24.5" x="4" y="4" color-interpolation-filters="sRGB" filterUnits="userSpaceOnUse">
      <feFlood flood-opacity="0" result="BackgroundImageFix"/>
      <feBlend in="SourceGraphic" in2="BackgroundImageFix" result="shape"/>
      <feColorMatrix in="SourceAlpha" result="hardAlpha" values="0 0 0 0 0 0 0 0 0 0 0 0 0 0 0 0 0 0 127 0"/>
      <feOffset dy=".5"/>
      <feGaussianBlur stdDeviation="1.25"/>
      <feComposite in2="hardAlpha" k2="-1" k3="1" operator="arithmetic"/>
      <feColorMatrix values="0 0 0 0 0 0 0 0 0 0 0 0 0 0 0 0 0 0 0.1 0"/>
      <feBlend in2="shape" result="effect1_innerShadow_3917_4041"/>
    </filter>
  </defs>
</svg>
