<svg xmlns="http://www.w3.org/2000/svg" width="32" height="32" fill="none" viewBox="0 0 32 32">
  <rect width="32" height="32" fill="url(#a)" rx="8"/>
  <path fill="#fff" d="M4.272 16.982c-.05 0-.09.037-.096.09L4 18.351l.176 1.257c0 .052.046.09.096.09.048 0 .087-.037.096-.09l.207-1.258-.207-1.279c-.008-.052-.048-.09-.096-.09Zm.987-.699c-.009-.055-.05-.093-.1-.093s-.093.04-.1.093l-.236 2.068.236 2.022a.102.102 0 0 0 .1.093c.05 0 .091-.038.1-.093l.268-2.022-.268-2.068Zm3.717-1.907a.181.181 0 0 0-.181.173l-.189 3.804.189 2.458a.182.182 0 0 0 .363 0l.212-2.458-.212-3.804a.183.183 0 0 0-.182-.173Zm-1.924 1.322a.141.141 0 0 0-.141.133l-.212 2.52.212 2.436a.141.141 0 0 0 .281 0l.241-2.436-.24-2.52a.14.14 0 0 0-.141-.134v.001Zm3.879 5.284a.22.22 0 0 0 .222-.212l.185-2.416-.184-5.065a.22.22 0 0 0-.222-.211.22.22 0 0 0-.223.212l-.164 5.064.164 2.418a.22.22 0 0 0 .222.21Zm4.003.011c.165 0 .3-.13.304-.29v.001-.002l.129-2.347-.129-5.85a.303.303 0 0 0-.304-.29.301.301 0 0 0-.305.291l-.115 5.848.115 2.35c.003.16.14.29.305.29Zm-2.017-.008a.26.26 0 0 0 .264-.252v.002l.156-2.38-.156-5.102a.26.26 0 0 0-.264-.251.26.26 0 0 0-.264.251l-.139 5.102.14 2.38a.26.26 0 0 0 .264.25Zm-4.906-.023a.161.161 0 0 0 .16-.152l.228-2.458-.227-2.34c0-.086-.075-.151-.161-.151a.16.16 0 0 0-.161.153l-.2 2.338.2 2.458a.16.16 0 0 0 .16.152Zm-1.907-.134a.121.121 0 0 0 .12-.113l.254-2.364-.254-2.453a.122.122 0 0 0-.121-.113.12.12 0 0 0-.12.113l-.224 2.453.224 2.364c0 .065.057.113.12.113Zm7.82-7.66a.28.28 0 0 0-.285.271l-.127 4.915.127 2.366a.28.28 0 0 0 .284.27.28.28 0 0 0 .284-.272v.002l.143-2.366-.143-4.916a.28.28 0 0 0-.284-.27Zm-3.972 7.819a.202.202 0 0 0 .202-.192l.198-2.442-.198-4.674a.202.202 0 0 0-.405 0l-.175 4.674.175 2.442a.2.2 0 0 0 .203.19v.002Zm2.213-.232v-.001l.17-2.402-.17-5.235a.24.24 0 0 0-.243-.232.24.24 0 0 0-.243.232l-.151 5.235.151 2.403c.004.129.11.23.243.23a.24.24 0 0 0 .244-.232l-.001.002Zm12.883-5.42c-.404 0-.79.078-1.142.22C23.672 13.001 21.441 11 18.72 11c-.666 0-1.315.126-1.889.339-.223.082-.282.168-.284.333v8.988a.35.35 0 0 0 .32.335l8.181.005C26.678 21 28 19.732 28 18.168c0-1.564-1.321-2.832-2.952-2.832v-.002Zm-9.104-3.671a.322.322 0 0 0-.326.312l-.133 6.379.133 2.315a.321.321 0 0 0 .325.308c.177 0 .323-.14.326-.31v.002l.144-2.315-.144-6.38a.322.322 0 0 0-.325-.311Z"/>
  <defs>
    <linearGradient id="a" x1="18.212" x2="3.252" y1="32.954" y2="0" gradientUnits="userSpaceOnUse">
      <stop offset=".073" stop-color="#FF433A"/>
      <stop offset=".974" stop-color="#FF9436"/>
    </linearGradient>
  </defs>
</svg>
