<svg width="24" height="24" viewBox="0 0 24 24" fill="none" xmlns="http://www.w3.org/2000/svg">
<path d="M0.271557 13.0799C0.221667 13.0799 0.18188 13.1206 0.175565 13.1792L0 14.5862L0.175565 15.9684C0.176197 16.0264 0.221667 16.067 0.271557 16.067C0.320185 16.067 0.35934 16.027 0.36755 15.9684L0.575323 14.5855L0.36755 13.1786C0.359971 13.1206 0.320185 13.0799 0.271557 13.0799ZM1.25864 12.3115C1.25043 12.2509 1.20938 12.2095 1.15886 12.2095C1.10833 12.2095 1.06602 12.2529 1.05907 12.3115C1.05907 12.3116 0.822882 14.5862 0.822882 14.5862L1.05907 16.8101C1.06602 16.8701 1.1077 16.9128 1.15886 16.9128C1.20938 16.9128 1.25043 16.8708 1.25864 16.8108L1.52704 14.5862L1.25864 12.3115ZM4.97582 10.2135C4.87919 10.2135 4.79899 10.2968 4.79457 10.4034L4.60637 14.5882L4.79457 17.2927C4.79962 17.3986 4.87919 17.4819 4.97582 17.4819C5.07181 17.4819 5.15201 17.3986 5.1577 17.2927V17.2927L5.36989 14.5882L5.1577 10.4035C5.15201 10.2975 5.07244 10.2135 4.97582 10.2135V10.2135ZM3.05155 11.6678C2.97703 11.6678 2.9164 11.7304 2.91072 11.8137L2.69916 14.5862L2.91072 17.2654C2.9164 17.3487 2.97703 17.4114 3.05155 17.4114C3.12481 17.4114 3.18606 17.3487 3.19238 17.2654L3.43299 14.5862L3.19238 11.8131C3.19175 11.7297 3.12544 11.6671 3.05155 11.6671V11.6678ZM6.93103 17.48C7.05102 17.48 7.14891 17.378 7.15333 17.2474L7.33774 14.5889L7.15396 9.0179C7.14891 8.88728 7.05165 8.78531 6.93166 8.78531C6.81041 8.78531 6.71252 8.88794 6.70873 9.01857L6.54517 14.5889L6.70873 17.2487C6.71252 17.3787 6.81041 17.4807 6.93103 17.4807V17.48ZM10.9337 17.4927C11.0991 17.4927 11.2349 17.3494 11.2381 17.1728V17.1748V17.1728L11.3669 14.5902L11.2381 8.15616C11.2349 7.98022 11.0985 7.83626 10.9337 7.83626C10.7682 7.83626 10.6318 7.97955 10.6293 8.15683L10.5143 14.5889C10.5143 14.5929 10.6293 17.1754 10.6293 17.1754C10.6318 17.35 10.7688 17.494 10.9337 17.494V17.4927ZM8.91719 17.484C9.06118 17.484 9.17675 17.362 9.18054 17.2068V17.2088L9.33716 14.5902L9.18054 8.97858C9.17675 8.8233 9.06055 8.702 8.91719 8.702C8.77257 8.702 8.65637 8.8233 8.65321 8.97858L8.51428 14.5902L8.65384 17.2081C8.657 17.3614 8.77257 17.4833 8.91782 17.4833L8.91719 17.484ZM4.01084 17.4587C4.0961 17.4587 4.16557 17.3867 4.17188 17.2914L4.3986 14.5869L4.17188 12.0137C4.17125 11.9184 4.09673 11.847 4.01084 11.847C3.92432 11.847 3.85485 11.919 3.8498 12.015L3.65024 14.5869L3.8498 17.2914C3.85548 17.3867 3.92432 17.4587 4.01084 17.4587ZM2.10362 17.3107C2.16615 17.3107 2.21667 17.2587 2.22361 17.1868L2.47812 14.5862L2.22361 11.8877C2.21604 11.8157 2.16551 11.7637 2.10299 11.7637C2.03984 11.7637 1.98932 11.8157 1.983 11.8877L1.75881 14.5862L1.983 17.1861C1.98363 17.2581 2.03984 17.3107 2.10299 17.3107H2.10362ZM9.92322 8.88461C9.76723 8.88461 9.64219 9.0159 9.63903 9.18319L9.51209 14.5895L9.63903 17.1914C9.64219 17.3567 9.76723 17.488 9.92322 17.488C10.0792 17.488 10.2036 17.3574 10.2074 17.1894V17.1914L10.3501 14.5895L10.2074 9.18185C10.2036 9.01457 10.0792 8.88394 9.92322 8.88394V8.88461ZM5.95153 17.4853C6.05952 17.4853 6.14857 17.3927 6.15362 17.2741L6.35192 14.5882L6.15362 9.44644C6.14794 9.32781 6.05952 9.23517 5.95153 9.23517C5.84291 9.23517 5.75386 9.32781 5.74944 9.44644L5.57388 14.5882L5.74944 17.2741C5.75386 17.3914 5.84291 17.484 5.95153 17.484V17.4853ZM8.16504 17.2307V17.2294L8.33555 14.5876L8.16504 8.82863C8.16125 8.68534 8.05389 8.57337 7.9219 8.57337C7.78928 8.57337 7.68255 8.68534 7.67876 8.82863L7.52783 14.5869L7.67939 17.2301C7.68318 17.372 7.78991 17.4833 7.92253 17.4833C8.05452 17.4833 8.16125 17.3714 8.16567 17.2288L8.16504 17.2307ZM21.0482 11.2679C20.6441 11.2679 20.2582 11.3545 19.9064 11.5098C19.6715 8.702 17.4409 6.5 14.7197 6.5C14.054 6.5 13.4048 6.63862 12.8314 6.87255C12.6085 6.96319 12.5491 7.05716 12.5472 7.23911V17.1261C12.5497 17.3167 12.6899 17.4753 12.8661 17.4947C12.8737 17.4947 20.9958 17.5 21.0482 17.5C22.6782 17.5 24 16.1051 24 14.3849C24 12.6641 22.6788 11.2692 21.0482 11.2692V11.2679ZM11.9435 7.23045C11.766 7.23045 11.6208 7.38373 11.6182 7.57301L11.485 14.5902L11.6182 17.1368C11.6208 17.3227 11.766 17.476 11.9435 17.476C12.1203 17.476 12.2656 17.3227 12.2687 17.1341V17.1374L12.4133 14.5902L12.2687 7.57234C12.2662 7.3844 12.1203 7.23045 11.9435 7.23045Z" fill="#202934"/>
</svg>
