<svg width="24" height="24" viewBox="0 0 24 24" fill="none" xmlns="http://www.w3.org/2000/svg">
<path fill-rule="evenodd" clip-rule="evenodd" d="M17.2041 9.00385C18.8381 10.0317 20.7948 10.5808 22.7996 10.5741V7.05855C22.4054 7.05951 22.0124 7.02218 21.6275 6.94722V9.74798C19.6182 9.75113 17.6586 9.19569 16.0254 8.1601V15.3905C16.0205 16.577 15.6528 17.7401 14.9613 18.7566C14.2698 19.7731 13.2803 20.6051 12.0978 21.1643C10.9152 21.7236 9.58368 21.9892 8.24434 21.9331C6.90499 21.877 5.60777 21.5012 4.49023 20.8455C5.52393 21.771 6.84473 22.4042 8.2854 22.665C9.72606 22.9258 11.2218 22.8024 12.5832 22.3105C13.9445 21.8187 15.1104 20.9804 15.933 19.9018C16.7556 18.8233 17.198 17.553 17.2041 16.2518V9.00385ZM18.6543 5.41794C17.8234 4.62102 17.3135 3.60338 17.2041 2.52343V2.06641H16.0917C16.2292 2.75287 16.5284 3.40604 16.9699 3.98347C17.4114 4.56089 17.9853 5.04964 18.6543 5.41794ZM7.06612 18.0624C6.68054 17.6162 6.44425 17.0832 6.38414 16.5241C6.32403 15.965 6.44251 15.4022 6.72609 14.8997C7.00968 14.3972 7.44699 13.9753 7.98825 13.6819C8.5295 13.3885 9.15297 13.2354 9.78769 13.2401C10.1381 13.24 10.4865 13.2875 10.8207 13.3808V9.74798C10.43 9.7022 10.036 9.68261 9.64201 9.68939V12.5136C8.82827 12.286 7.94752 12.3377 7.17494 12.6586C6.40236 12.9794 5.79456 13.5458 5.47243 14.2451C5.1503 14.9444 5.13744 15.7253 5.43642 16.4326C5.7354 17.1399 6.32429 17.7218 7.08599 18.0624H7.06612Z" fill="#EE1D52"/>
<path fill-rule="evenodd" clip-rule="evenodd" d="M16.0252 8.13666C17.6584 9.17225 19.618 9.72769 21.6272 9.72454V6.92378C20.4825 6.70961 19.4425 6.18291 18.654 5.41794C17.9851 5.04964 17.4112 4.56089 16.9697 3.98347C16.5282 3.40604 16.2289 2.75287 16.0914 2.06641H13.1646V16.2518C13.1618 16.8797 12.937 17.4911 12.5215 18.0001C12.106 18.5092 11.5209 18.8903 10.8481 19.09C10.1753 19.2897 9.44879 19.298 8.77044 19.1137C8.09209 18.9294 7.49601 18.5617 7.06586 18.0624C6.38416 17.758 5.83823 17.2593 5.51614 16.6467C5.19405 16.0341 5.11459 15.3434 5.29058 14.686C5.46658 14.0285 5.88776 13.4427 6.48617 13.0231C7.08458 12.6034 7.82532 12.3744 8.58887 12.373C8.93921 12.3739 9.28741 12.4213 9.62188 12.5136V9.68938C8.17673 9.72008 6.77315 10.1235 5.58344 10.8501C4.39374 11.5766 3.46967 12.5948 2.92469 13.7795C2.37971 14.9642 2.23752 16.264 2.51558 17.5192C2.79364 18.7744 3.47985 19.9305 4.48997 20.8455C5.60773 21.5059 6.90699 21.8855 8.24935 21.9441C9.59171 22.0027 10.9269 21.738 12.1127 21.1782C13.2984 20.6184 14.2904 19.7845 14.9829 18.7653C15.6754 17.7461 16.0425 16.5797 16.045 15.3905L16.0252 8.13666Z" fill="#202934"/>
<path fill-rule="evenodd" clip-rule="evenodd" d="M21.6268 6.92378V6.16792C20.5756 6.17188 19.5446 5.91181 18.6537 5.41793C19.4401 6.18511 20.4809 6.71224 21.6268 6.92378ZM16.091 2.0664C16.091 1.93163 16.0447 1.79101 16.0248 1.65625V1.19922H11.9855V15.3905C11.982 16.1851 11.6223 16.9461 10.9855 17.5063C10.3486 18.0665 9.48653 18.3803 8.58849 18.3788C8.05972 18.3811 7.53782 18.2727 7.06548 18.0624C7.49563 18.5617 8.09172 18.9294 8.77006 19.1137C9.44841 19.298 10.175 19.2897 10.8477 19.09C11.5205 18.8903 12.1057 18.5092 12.5211 18.0001C12.9366 17.4911 13.1614 16.8797 13.1642 16.2518V2.0664H16.091ZM9.6215 9.68352V8.88079C7.95935 8.68099 6.26972 8.98523 4.828 9.74391C3.38627 10.5026 2.27745 11.671 1.68224 13.0587C1.08704 14.4463 1.04055 15.9715 1.55035 17.3855C2.06015 18.7996 3.09618 20.0192 4.48959 20.8455C3.48711 19.9284 2.80821 18.7728 2.53583 17.5198C2.26345 16.2669 2.40937 14.9709 2.95578 13.7901C3.50219 12.6094 4.42542 11.595 5.61269 10.8709C6.79996 10.1468 8.19985 9.74442 9.64136 9.71282L9.6215 9.68352Z" fill="#69C9D0"/>
</svg>
