<svg width="24" height="23" viewBox="0 0 24 23" fill="none" xmlns="http://www.w3.org/2000/svg">
<path d="M23.4998 6.15432C23.2249 5.11114 22.4117 4.28818 21.377 4.00614C19.5062 3.5 12 3.5 12 3.5C12 3.5 4.49761 3.5 2.62297 4.00614C1.59211 4.28432 0.778874 5.10727 0.500159 6.15432C0 8.0475 0 12 0 12C0 12 0 15.9525 0.500159 17.8457C0.775056 18.8889 1.58829 19.7118 2.62297 19.9939C4.49761 20.5 12 20.5 12 20.5C12 20.5 19.5062 20.5 21.377 19.9939C22.4079 19.7157 23.2211 18.8927 23.4998 17.8457C24 15.9525 24 12 24 12C24 12 24 8.0475 23.4998 6.15432Z" fill="#202934"/>
<path d="M9.60229 15.6434L15.8371 12L9.60229 8.35659V15.6434Z" fill="white"/>
</svg>
